<svg xmlns="http://www.w3.org/2000/svg" viewBox="0 0 401 175" enable-background="new 0 0 401 175"><g fill="#d0dbe2"><path d="M35.09,14.02h-8.47V25.08h6.159v7.979H26.62v12.46h8.47V34.46h15.68V57H2.82V45.52H7.02v-31.5H2.82V2.54
			H50.77v21.14H35.09V14.02z"/><path d="m71.77 41.04c0 1.587.338 2.729 1.015 3.43.676.7 1.691 1.05 3.045 1.05s2.368-.35 3.045-1.05c.676-.7 1.016-1.843 1.016-3.43v-11.48h-3.78v-11.48h19.88v27.44h3.08v11.48h-19.18v-4.76c-.561.606-1.202 1.236-1.926 1.89-.724.654-1.552 1.26-2.484 1.82-.935.56-2.01 1.039-3.221 1.435-1.214.396-2.613.596-4.199.596-3.827 0-6.85-1.365-9.06-4.096-2.217-2.729-3.325-7.01-3.325-12.845v-11.48h-3.08v-11.48h19.18v22.96"/><path d="m101.03 18.08h19.18v4.62l.699.21c.326-.653.746-1.33 1.261-2.03.513-.7 1.143-1.33 1.89-1.89.746-.561 1.598-1.016 2.555-1.365.956-.35 2.041-.525 3.255-.525.98 0 1.937.07 2.87.21.934.141 1.866.397 2.8.771v12.11c-1.539-.28-2.835-.455-3.885-.525s-1.925-.105-2.625-.105c-3.08 0-5.319.689-6.72 2.065-1.4 1.377-2.1 3.745-2.1 7.105v6.789h6.369v11.48h-25.55v-11.48h3.08v-15.96h-3.08v-11.48"/><path d="m177.33 37.54c0 3.454-.49 6.452-1.47 8.995-.98 2.544-2.393 4.667-4.235 6.37-1.844 1.704-4.072 2.975-6.685 3.814-2.614.84-5.53 1.261-8.75 1.261s-6.138-.421-8.75-1.261c-2.614-.84-4.842-2.11-6.686-3.814-1.844-1.703-3.255-3.826-4.234-6.37-.98-2.543-1.471-5.541-1.471-8.995 0-3.406.49-6.393 1.471-8.96.979-2.566 2.391-4.701 4.234-6.405 1.844-1.703 4.071-2.975 6.686-3.814 2.612-.841 5.53-1.261 8.75-1.261s6.136.42 8.75 1.261c2.612.84 4.841 2.111 6.685 3.814 1.843 1.704 3.255 3.839 4.235 6.405.98 2.567 1.47 5.554 1.47 8.96m-21.14 7.98c1.353 0 2.368-.35 3.045-1.05.676-.7 1.015-1.843 1.015-3.43v-7c0-1.586-.339-2.73-1.015-3.43-.677-.7-1.692-1.051-3.045-1.051-1.354 0-2.369.351-3.045 1.051-.678.699-1.016 1.844-1.016 3.43v7c0 1.587.338 2.729 1.016 3.43.676.7 1.691 1.05 3.045 1.05"/><path d="m202.18 72.54h-24.01v-11.48h3.08v-31.5h-3.08v-11.48h19.18v4.76c.42-.56.968-1.178 1.646-1.854.676-.677 1.48-1.295 2.414-1.855.934-.56 1.961-1.038 3.08-1.435 1.12-.396 2.356-.596 3.71-.596 4.854 0 8.458 1.785 10.815 5.355 2.355 3.57 3.535 8.599 3.535 15.09 0 6.487-1.18 11.515-3.535 15.09-2.357 3.57-5.962 5.355-10.815 5.355-1.354 0-2.59-.199-3.71-.596-1.119-.396-2.146-.875-3.08-1.435-.934-.561-1.738-1.178-2.414-1.855-.678-.676-1.226-1.295-1.646-1.854v8.819h4.83v11.481m3.29-38.5c0-1.586-.339-2.73-1.015-3.43-.678-.7-1.692-1.051-3.046-1.051s-2.368.351-3.045 1.051c-.677.699-1.015 1.844-1.015 3.43v7c0 1.587.338 2.729 1.015 3.43s1.691 1.05 3.045 1.05 2.368-.35 3.046-1.05c.676-.7 1.015-1.843 1.015-3.43v-7"/><path d="m245.09 17.1c3.593 0 6.58.525 8.96 1.575s4.293 2.415 5.74 4.095c1.445 1.681 2.461 3.595 3.045 5.74.583 2.147.875 4.317.875 6.51v5.04h-22.681v.421c0 1.68.479 2.939 1.436 3.779.956.84 2.694 1.26 5.215 1.26 3.08 0 5.903-.232 8.47-.699 2.566-.466 4.69-.98 6.37-1.54v11.2c-.84.42-1.809.828-2.905 1.225s-2.345.77-3.744 1.12c-1.4.35-2.987.63-4.761.84s-3.779.315-6.02.315c-3.22 0-6.138-.421-8.75-1.261-2.614-.84-4.842-2.11-6.686-3.814-1.844-1.703-3.255-3.826-4.234-6.37-.98-2.543-1.471-5.541-1.471-8.995 0-3.406.49-6.393 1.471-8.96.979-2.566 2.391-4.701 4.234-6.405 1.844-1.703 4.071-2.975 6.686-3.814 2.612-.842 5.53-1.262 8.75-1.262m0 12.46c-1.354 0-2.369.351-3.045 1.051-.678.699-1.016 1.844-1.016 3.43v.42h8.12v-.42c0-1.586-.339-2.73-1.015-3.43-.676-.701-1.692-1.051-3.044-1.051"/><path d="m290.31 52.24c-.42.56-.979 1.179-1.68 1.854-.7.678-1.552 1.295-2.555 1.855-1 .56-2.17 1.039-3.5 1.435-1.33.396-2.835.596-4.516.596-4.06 0-7.233-.935-9.52-2.801-2.287-1.865-3.431-4.572-3.431-8.12 0-4.433 2.065-7.78 6.195-10.05 4.13-2.263 10.465-3.395 19-3.395 0-1.306-.42-2.311-1.26-3.01-.84-.7-2.567-1.051-5.18-1.051-2.801 0-5.612.21-8.436.631-2.824.42-5.425.887-7.805 1.399v-12.04c2.38-.652 5.296-1.225 8.75-1.715 3.453-.49 7-.735 10.64-.735 3.733 0 6.849.351 9.346 1.051 2.495.699 4.49 1.762 5.984 3.185 1.493 1.424 2.543 3.197 3.15 5.32.605 2.124.91 4.585.91 7.385v11.479h3.08v11.48h-19.18v-4.76zm0-11.62c-2.894 0-4.97.199-6.229.595-1.261.397-1.891 1.085-1.891 2.065 0 1.494 1.283 2.239 3.851 2.239 2.846 0 4.27-1.492 4.27-4.479v-.42"/><path d="m335.53 45.52h3.08v-11.48c0-1.586-.339-2.73-1.015-3.43-.678-.7-1.692-1.051-3.045-1.051-1.354 0-2.369.351-3.045 1.051-.678.699-1.016 1.844-1.016 3.43v11.48h3.08v11.48h-22.26v-11.48h3.08v-15.96h-3.08v-11.48h19.18v4.76c.561-.56 1.19-1.178 1.891-1.854.699-.677 1.527-1.295 2.484-1.855.956-.56 2.041-1.038 3.255-1.435 1.213-.396 2.613-.596 4.2-.596 3.826 0 6.848 1.365 9.06 4.096 2.216 2.729 3.324 7.01 3.324 12.845v11.479h3.08v11.48h-22.26v-11.48z"/></g><g fill="#c9412d"><path d="m26.48 111.52h3.08v-11.48c0-1.586-.34-2.73-1.016-3.43-.677-.7-1.691-1.051-3.045-1.051s-2.369.351-3.045 1.051c-.678.699-1.016 1.844-1.016 3.43v11.479h3.08v11.481h-22.258v-11.48h3.08v-31.5h-3.08v-11.48h19.18v20.3c.561-.56 1.19-1.178 1.891-1.854.699-.677 1.527-1.295 2.484-1.855.957-.56 2.041-1.038 3.256-1.435 1.213-.396 2.613-.596 4.199-.596 3.826 0 6.849 1.365 9.06 4.096 2.216 2.729 3.325 7.01 3.325 12.845v11.479h3.08v11.48h-22.26v-11.48"/><path d="m92.28 103.54c0 3.454-.49 6.452-1.47 8.995-.98 2.544-2.393 4.667-4.235 6.37-1.844 1.704-4.072 2.975-6.685 3.814-2.614.84-5.53 1.261-8.75 1.261s-6.138-.421-8.75-1.261c-2.614-.84-4.842-2.11-6.686-3.814-1.844-1.703-3.255-3.826-4.234-6.37-.98-2.543-1.471-5.541-1.471-8.995 0-3.406.49-6.393 1.471-8.96.979-2.566 2.391-4.701 4.234-6.405 1.844-1.703 4.071-2.975 6.686-3.814 2.612-.841 5.53-1.261 8.75-1.261s6.136.42 8.75 1.261c2.612.84 4.841 2.111 6.685 3.814 1.843 1.704 3.255 3.839 4.235 6.405.98 2.567 1.47 5.554 1.47 8.96m-21.14 7.98c1.353 0 2.368-.35 3.045-1.05.676-.7 1.015-1.843 1.015-3.43v-7c0-1.586-.339-2.73-1.015-3.43-.677-.7-1.692-1.051-3.045-1.051-1.354 0-2.369.351-3.045 1.051-.678.699-1.016 1.844-1.016 3.43v7c0 1.587.338 2.729 1.016 3.43.676.7 1.69 1.05 3.045 1.05"/><path d="m95.29 112.08c3.5.514 6.37.852 8.609 1.015 2.24.164 4.01.245 5.32.245 2.053 0 3.406-.163 4.061-.49.652-.325.979-.77.979-1.33 0-.605-.35-1.061-1.05-1.364s-2.147-.618-4.34-.945c-4.854-.653-8.669-2.053-11.445-4.2-2.777-2.146-4.165-5.18-4.165-9.1 0-1.82.326-3.511.98-5.075.652-1.562 1.702-2.916 3.149-4.06 1.446-1.144 3.301-2.041 5.565-2.695 2.263-.653 4.98-.98 8.154-.98 3.453 0 6.568.2 9.346.6 2.775.399 5.075.904 6.895 1.515v9.506c-2.24-.279-4.504-.513-6.79-.7-2.287-.186-4.457-.279-6.51-.279-1.96 0-3.349.14-4.165.419-.817.279-1.225.698-1.225 1.257 0 .279.069.524.21.733.14.21.407.396.805.559.396.163.945.304 1.646.419.699.116 1.586.222 2.659.314 5.413.513 9.403 1.84 11.971 3.981 2.565 2.142 3.85 5.19 3.85 9.147 0 4.145-1.424 7.416-4.27 9.813-2.848 2.397-7.305 3.597-13.37 3.597-3.547 0-6.779-.211-9.695-.631-2.917-.42-5.309-.933-7.175-1.54v-9.731z"/><path d="m150.66 84.08h9.449v11.48h-9.449v11.48c0 1.587.338 2.729 1.015 3.43.676.7 1.69 1.05 3.045 1.05 1.866 0 3.803-.21 5.81-.63v10.99c-1.493.561-3.278 1.05-5.354 1.47-2.077.42-4.305.631-6.686.631-2.38 0-4.491-.258-6.335-.771s-3.395-1.388-4.654-2.625c-1.261-1.236-2.229-2.858-2.905-4.865-.677-2.01-1.015-4.503-1.015-7.489v-12.671h-3.08v-11.48c1.865 0 3.22-.479 4.06-1.436.84-.955 1.26-2.181 1.26-3.675v-3.149h14.841v8.26z"/><path d="m187.27 118.24c-.42.56-.979 1.179-1.68 1.854-.7.678-1.552 1.295-2.555 1.855-1 .56-2.17 1.039-3.5 1.435-1.33.396-2.835.596-4.516.596-4.06 0-7.233-.935-9.52-2.801-2.287-1.865-3.431-4.572-3.431-8.12 0-4.433 2.065-7.78 6.195-10.05 4.13-2.263 10.465-3.395 19-3.395 0-1.306-.42-2.311-1.26-3.01-.84-.7-2.567-1.051-5.18-1.051-2.801 0-5.612.21-8.436.631-2.824.42-5.425.887-7.805 1.399v-12.04c2.38-.652 5.296-1.225 8.75-1.715 3.453-.49 7-.735 10.64-.735 3.733 0 6.849.351 9.346 1.051 2.495.699 4.49 1.762 5.984 3.185 1.493 1.424 2.543 3.197 3.15 5.32.605 2.124.91 4.585.91 7.385v11.479h3.08v11.48h-19.18v-4.76zm0-11.62c-2.894 0-4.97.199-6.229.595-1.261.397-1.891 1.085-1.891 2.065 0 1.494 1.283 2.239 3.851 2.239 2.846 0 4.27-1.492 4.27-4.479v-.42z"/><path d="m233.19 84.08h19.18v11.48h-3.08v24.64c0 3.453-.432 6.405-1.295 8.854-.864 2.45-2.159 4.445-3.885 5.985-1.727 1.54-3.85 2.671-6.37 3.395-2.52.724-5.414 1.085-8.68 1.085-3.08 0-6.207-.233-9.38-.699-3.175-.468-5.624-1-7.351-1.61v-11.48c1.96.372 4.096.688 6.405.944 2.31.256 4.608.385 6.896.385 2.753 0 4.7-.432 5.845-1.295 1.143-.863 1.715-2.369 1.715-4.515v-3.01c-.42.56-.98 1.179-1.68 1.854-.7.678-1.505 1.295-2.415 1.855-.91.56-1.938 1.039-3.08 1.435-1.145.396-2.369.596-3.675.596-4.854 0-8.46-1.785-10.815-5.355-2.357-3.57-3.535-8.598-3.535-15.08 0-6.486 1.178-11.515 3.535-15.09 2.355-3.57 5.961-5.355 10.815-5.355 1.306 0 2.53.199 3.675.596 1.143.396 2.17.875 3.08 1.435.91.561 1.715 1.179 2.415 1.855.699.677 1.26 1.295 1.68 1.854v-4.759m-8.121 22.96c0 1.587.338 2.729 1.015 3.43s1.691 1.05 3.046 1.05c1.353 0 2.367-.35 3.045-1.05.676-.7 1.015-1.843 1.015-3.43v-7c0-1.586-.339-2.73-1.015-3.43-.678-.7-1.692-1.051-3.045-1.051-1.354 0-2.369.351-3.046 1.051-.677.699-1.015 1.844-1.015 3.43v7"/><path d="m274.77 83.1c3.593 0 6.58.525 8.96 1.575s4.293 2.415 5.74 4.095c1.445 1.681 2.461 3.595 3.045 5.74.583 2.147.875 4.317.875 6.51v5.04h-22.681v.421c0 1.68.479 2.939 1.436 3.779.956.84 2.694 1.26 5.215 1.26 3.08 0 5.903-.232 8.47-.699 2.566-.466 4.69-.98 6.37-1.54v11.2c-.84.42-1.809.828-2.905 1.225s-2.345.77-3.744 1.12c-1.4.35-2.987.63-4.761.84s-3.779.315-6.02.315c-3.22 0-6.138-.421-8.75-1.261-2.614-.84-4.842-2.11-6.686-3.814-1.844-1.703-3.255-3.826-4.234-6.37-.98-2.543-1.471-5.541-1.471-8.995 0-3.406.49-6.393 1.471-8.96.979-2.566 2.391-4.701 4.234-6.405 1.844-1.703 4.071-2.975 6.686-3.814 2.612-.842 5.53-1.262 8.75-1.262m0 12.46c-1.354 0-2.369.351-3.045 1.051-.678.699-1.016 1.844-1.016 3.43v.42h8.12v-.42c0-1.586-.339-2.73-1.015-3.43-.676-.701-1.692-1.051-3.044-1.051"/><path d="m296.68 112.08c3.5.514 6.37.852 8.609 1.015 2.24.164 4.01.245 5.32.245 2.053 0 3.406-.163 4.061-.49.652-.325.979-.77.979-1.33 0-.605-.35-1.061-1.05-1.364s-2.147-.618-4.34-.945c-4.854-.653-8.669-2.053-11.445-4.2-2.777-2.146-4.165-5.18-4.165-9.1 0-1.82.326-3.511.98-5.075.652-1.562 1.702-2.916 3.149-4.06 1.446-1.144 3.301-2.041 5.565-2.695 2.263-.653 4.98-.98 8.154-.98 3.453 0 6.568.2 9.346.6 2.775.399 5.075.904 6.895 1.515v9.506c-2.24-.279-4.504-.513-6.79-.7-2.287-.186-4.457-.279-6.51-.279-1.96 0-3.349.14-4.165.419-.817.279-1.225.698-1.225 1.257 0 .279.069.524.21.733.14.21.407.396.805.559.396.163.945.304 1.646.419.699.116 1.586.222 2.659.314 5.413.513 9.403 1.84 11.971 3.981 2.565 2.142 3.85 5.19 3.85 9.147 0 4.145-1.424 7.416-4.27 9.813-2.848 2.397-7.305 3.597-13.37 3.597-3.547 0-6.779-.211-9.695-.631-2.917-.42-5.309-.933-7.175-1.54v-9.731z"/></g><g fill="#91989c"><path d="m7.98 165.22v-.82c0-1.627-.693-2.44-2.08-2.44-.227 0-.42.021-.58.06-.16.04-.294.107-.4.2-.107.094-.203.228-.29.4s-.17.387-.25.64c-.147.387-.29.644-.43.771s-.344.189-.61.189c-.666 0-1-.333-1-1 0-.64.34-1.137 1.02-1.489.681-.354 1.646-.53 2.9-.53 1.334 0 2.28.236 2.84.71.561.474.84 1.276.84 2.41v4.479c0 1.521.301 2.28.9 2.28.187 0 .367-.023.54-.07.173-.046.32-.17.44-.37l.279.48c-.16.307-.453.563-.879.77-.428.207-.874.311-1.341.311-.587 0-1.023-.188-1.31-.561-.287-.373-.43-.899-.43-1.58h-.099c-.347.654-.827 1.171-1.44 1.551s-1.293.569-2.039.569c-.84 0-1.5-.213-1.98-.64s-.721-1-.721-1.72c0-.32.057-.627.17-.92.113-.294.297-.573.551-.841.253-.267.586-.529 1-.79.413-.26.92-.522 1.52-.789l2.879-1.26m0 .86c-.76.293-1.404.58-1.931.86-.526.279-.95.56-1.271.84-.319.279-.549.56-.689.84-.14.28-.21.566-.21.86 0 .439.146.8.44 1.079.293.28.68.421 1.16.421.346 0 .67-.087.97-.261.3-.173.563-.41.79-.71s.406-.653.539-1.06c.134-.407.201-.837.201-1.29v-1.579z"/><path d="m16.52 168.82c0 .547.014.979.04 1.3s.097.563.21.729c.113.167.277.277.49.33.213.054.514.094.9.12v.7h-5.32v-.7c.387-.013.693-.05.92-.109.227-.061.4-.171.52-.33.12-.16.197-.391.23-.69s.05-.703.05-1.21v-2.34c0-.906-.01-1.613-.03-2.12-.02-.507-.086-.88-.199-1.12s-.291-.383-.53-.43c-.24-.047-.573-.07-1-.07v-.7l3.5-.76.28 2.48h.08c.172-.4.39-.767.649-1.101.261-.333.543-.616.851-.85.307-.233.626-.417.959-.55.334-.134.674-.2 1.021-.2.427 0 .763.104 1.01.31.247.207.37.483.37.83 0 .32-.1.57-.3.75s-.487.271-.86.271c-.213 0-.393-.027-.539-.08-.147-.054-.277-.11-.391-.17-.113-.061-.221-.117-.32-.17-.1-.054-.21-.08-.33-.08-.359 0-.72.229-1.08.689-.359.46-.64 1.044-.84 1.75-.106.387-.189.823-.25 1.311-.06.486-.09.996-.09 1.529v.681z"/><path d="m27.9 161.2c.76 0 1.479.137 2.16.41.68.273 1.275.649 1.789 1.13.514.479.92 1.05 1.221 1.71.3.66.449 1.383.449 2.17 0 .813-.149 1.56-.449 2.24-.301.68-.707 1.267-1.221 1.76s-1.109.88-1.789 1.16c-.681.279-1.4.42-2.16.42-.748 0-1.457-.137-2.131-.41-.673-.273-1.264-.656-1.77-1.15-.507-.493-.906-1.083-1.2-1.77s-.44-1.437-.44-2.25c0-.787.146-1.514.44-2.18.294-.667.693-1.24 1.2-1.721.506-.479 1.097-.853 1.77-1.12.674-.266 1.383-.399 2.131-.399m0 .96c-.494 0-.943.106-1.351.32-.407.213-.753.517-1.04.909-.287.394-.507.867-.66 1.42-.153.554-.229 1.164-.229 1.83 0 .693.076 1.32.229 1.88.153.561.373 1.037.66 1.431s.631.696 1.03.91c.399.213.853.319 1.36.319.506 0 .967-.106 1.379-.319.414-.214.768-.521 1.061-.92.293-.4.52-.881.68-1.44s.24-1.18.24-1.86c0-.666-.08-1.272-.24-1.819s-.387-1.017-.68-1.41-.646-.7-1.061-.92c-.411-.221-.872-.331-1.378-.331"/><path d="m43.739 164.6c0-.546-.013-.977-.04-1.29-.026-.312-.097-.553-.21-.72-.113-.166-.28-.28-.5-.34s-.523-.11-.909-.15v-.7h3.619v6.14c0 .76.01 1.38.03 1.86.021.479.05.84.09 1.08.026.173.07.31.13.409.061.101.15.181.271.24.12.061.276.101.47.12s.443.03.75.03v.7l-3.3.239-.22-2.399h-.08c-.508.826-1.09 1.43-1.75 1.81s-1.351.57-2.07.57c-.561 0-1.104-.107-1.63-.32s-.924-.5-1.19-.86c-.227-.293-.39-.699-.49-1.22-.1-.52-.149-1.193-.149-2.02v-3.179c0-.546-.014-.977-.04-1.29-.027-.312-.097-.553-.21-.72-.113-.166-.28-.28-.5-.34s-.523-.11-.91-.15v-.7h3.62v5.46c0 1.453.17 2.507.51 3.159.34.654.883.98 1.631.98 1.172 0 2.086-.767 2.739-2.3.066-.16.12-.307.16-.44.04-.133.073-.279.101-.439.025-.16.046-.34.06-.54.013-.2.02-.44.02-.721v-1.959z"/><path d="m52.2 168.86c0 .547.014.977.04 1.29s.097.553.21.72.28.276.5.33c.221.054.523.093.91.12v.68h-5.24v-.68c.373-.027.67-.066.891-.12.22-.054.39-.16.51-.32.119-.16.196-.387.23-.68.033-.293.049-.693.049-1.2v-2.66c0-1.586-.039-2.553-.119-2.899-.041-.174-.09-.317-.15-.431s-.15-.2-.27-.26c-.121-.06-.273-.1-.461-.12-.187-.02-.426-.03-.719-.03v-.64l3.199-.76.24 1.979h.08c.506-.626 1.1-1.113 1.779-1.46.681-.347 1.42-.52 2.221-.52.613 0 1.173.1 1.68.3s.893.474 1.16.82c.227.307.387.703.48 1.189.093.487.14 1.157.14 2.01v3.341c0 .547.017.977.05 1.29s.104.553.21.72.271.276.49.33.51.093.87.12v.681h-5.179v-.68c.373-.014.67-.051.889-.11.221-.06.387-.17.5-.33s.188-.39.221-.689c.033-.301.05-.697.05-1.19v-2.64c0-.761-.04-1.4-.12-1.92-.08-.521-.209-.94-.39-1.261-.181-.319-.417-.55-.71-.689-.293-.141-.646-.21-1.061-.21-.6 0-1.149.156-1.649.47s-.89.743-1.17 1.29c-.067.134-.124.26-.171.38s-.082.26-.109.42-.047.344-.061.55c-.013.207-.02.471-.02.79v2.679"/><path d="m71.34 170.32h-.08c-.48.68-.99 1.163-1.53 1.449-.54.287-1.177.431-1.909.431-.761 0-1.457-.137-2.091-.41s-1.18-.653-1.64-1.14c-.46-.487-.82-1.07-1.08-1.75-.26-.681-.391-1.42-.391-2.221 0-.786.131-1.517.391-2.189.26-.674.62-1.253 1.08-1.74.46-.486 1.01-.866 1.65-1.14.64-.273 1.332-.41 2.08-.41.639 0 1.209.106 1.709.319.5.214.983.554 1.45 1.021v-2.04c0-.76-.01-1.394-.03-1.9-.02-.506-.049-.853-.09-1.04-.066-.293-.253-.5-.56-.619-.308-.12-.808-.181-1.5-.181v-.6l4.101-.76v11.54c0 .92.006 1.677.02 2.27.013.594.053 1.017.119 1.271.041.159.091.293.15.399.061.107.146.19.26.25.113.061.268.104.461.13.193.027.443.04.75.04v.681l-3.32.22v-1.881m-.401-4.42c0-.693-.037-1.221-.109-1.58-.074-.36-.217-.674-.43-.94-.308-.399-.697-.703-1.171-.91-.474-.206-.943-.31-1.409-.31-.961 0-1.69.396-2.19 1.189-.5.794-.75 1.87-.75 3.23 0 .707.063 1.347.19 1.92.126.573.312 1.063.56 1.47.247.407.553.721.92.94.366.22.79.33 1.271.33.239 0 .482-.026.729-.08s.486-.137.72-.25.45-.247.65-.4c.199-.153.366-.33.5-.529.187-.294.32-.647.4-1.061s.119-.979.119-1.7v-1.319"/><path d="m81.7 162.66v-.74c.706-.413 1.26-.826 1.66-1.24.399-.413.706-.906.92-1.479h.58v2.52h2.68v.94h-2.68v6.08c0 .467.022.859.069 1.18s.124.577.229.771c.107.193.247.329.421.409.173.08.394.12.659.12.334 0 .617-.069.851-.21.233-.14.464-.376.69-.71l.5.38c-.188.494-.51.87-.971 1.13-.459.261-1.029.391-1.709.391-.881 0-1.551-.21-2.01-.63s-.69-1.023-.69-1.811v-7.1h-1.198"/><path d="m92.62 168.82c0 .547.014.979.04 1.3s.097.563.21.729c.113.167.276.277.49.33.213.054.513.094.899.12v.7h-5.319v-.7c.387-.026.693-.066.92-.12.227-.053.399-.16.52-.319.12-.16.197-.391.23-.69s.05-.703.05-1.21v-8.38c0-.787-.011-1.413-.03-1.88s-.057-.82-.109-1.061c-.027-.159-.07-.29-.131-.39-.06-.1-.15-.18-.27-.24-.12-.06-.28-.103-.48-.13-.199-.026-.447-.04-.74-.04v-.68l3.681-.76v7.619h.08c.2-.266.45-.51.75-.729s.623-.41.97-.57.71-.286 1.09-.38c.381-.093.75-.14 1.11-.14.612 0 1.177.106 1.69.319.513.214.91.5 1.189.86.227.307.393.71.5 1.21.106.5.16 1.177.16 2.03v3.2c0 .547.014.977.04 1.29s.097.557.21.729c.113.174.276.287.49.34.213.054.513.094.899.12v.7h-5.3v-.7c.373-.013.674-.05.9-.109.227-.061.396-.171.51-.33.113-.16.187-.391.22-.69s.05-.703.05-1.21v-2.52c0-1.493-.174-2.557-.52-3.19-.348-.633-.928-.95-1.74-.95-.627 0-1.197.16-1.71.48-.513.319-.917.76-1.21 1.319-.066.147-.123.284-.17.41-.047.127-.084.271-.109.431-.027.159-.044.343-.051.55s-.01.463-.01.77v2.562"/><path d="m112.66 170.14c-1.133 1.374-2.539 2.061-4.219 2.061-.787 0-1.5-.13-2.141-.391-.641-.26-1.189-.626-1.65-1.1-.459-.473-.816-1.04-1.07-1.7-.253-.66-.379-1.39-.379-2.189 0-.813.133-1.566.399-2.261.267-.692.644-1.286 1.13-1.779s1.066-.88 1.74-1.16 1.41-.42 2.21-.42c1.293 0 2.293.35 3 1.05.706.7 1.06 1.703 1.06 3.01 0 .188-.037.3-.109.34-.074.04-.244.061-.51.061h-6.58c-.027.106-.047.236-.061.39s-.02.323-.02.51c0 .694.083 1.324.25 1.891.166.566.406 1.05.72 1.45.313.399.687.71 1.12.93s.916.33 1.449.33c.561 0 1.08-.123 1.561-.37s.973-.65 1.48-1.21l.62.557m-3.299-5.4c.266 0 .479-.007.639-.021.16-.013.281-.04.361-.08s.133-.097.159-.17.04-.17.04-.29c0-.613-.197-1.103-.59-1.47-.394-.366-.93-.55-1.609-.55-1.44 0-2.334.859-2.681 2.58h3.681"/><path d="m124.42 172.2h-.74l-2.6-8.32c-.119-.373-.233-.673-.34-.899-.107-.227-.233-.407-.38-.54-.147-.134-.319-.224-.521-.271-.199-.047-.446-.07-.739-.07v-.7h5.3v.699c-.52 0-.887.061-1.1.181-.214.12-.32.326-.32.62 0 .133.02.29.061.47.039.18.092.403.159.67l1.36 4.78h.08l2.939-7.42h.62l2.66 7.42h.08l1.2-3.24c.16-.44.293-.811.4-1.11.105-.3.189-.553.25-.76.06-.206.103-.377.129-.51.027-.134.041-.26.041-.38 0-.293-.088-.487-.261-.58-.173-.094-.533-.141-1.08-.141v-.699h4v.699c-.2 0-.37.03-.51.091-.14.06-.28.177-.42.35-.14.174-.284.42-.431.74-.146.319-.326.739-.539 1.26l-3.101 7.66h-.739l-2.44-7.38h-.08l-2.938 7.38"/><path d="m142.06 161.2c.76 0 1.479.137 2.16.41.68.273 1.275.649 1.789 1.13.514.479.92 1.05 1.221 1.71.3.66.449 1.383.449 2.17 0 .813-.149 1.56-.449 2.24-.301.68-.707 1.267-1.221 1.76s-1.109.88-1.789 1.16c-.681.279-1.4.42-2.16.42-.748 0-1.457-.137-2.131-.41-.673-.273-1.264-.656-1.77-1.15-.507-.493-.906-1.083-1.2-1.77s-.44-1.437-.44-2.25c0-.787.146-1.514.44-2.18.294-.667.693-1.24 1.2-1.721.506-.479 1.097-.853 1.77-1.12.674-.266 1.383-.399 2.131-.399m0 .96c-.494 0-.943.106-1.351.32-.407.213-.753.517-1.04.909-.287.394-.507.867-.66 1.42-.153.554-.229 1.164-.229 1.83 0 .693.076 1.32.229 1.88.153.561.373 1.037.66 1.431s.631.696 1.03.91c.399.213.853.319 1.36.319.506 0 .967-.106 1.379-.319.414-.214.768-.521 1.061-.92.293-.4.52-.881.68-1.44s.24-1.18.24-1.86c0-.666-.08-1.272-.24-1.819s-.387-1.017-.68-1.41-.646-.7-1.061-.92c-.412-.221-.873-.331-1.378-.331"/><path d="m153.08 168.82c0 .547.013.979.039 1.3.027.32.098.563.211.729.113.167.276.277.49.33.213.054.513.094.899.12v.7h-5.32v-.7c.387-.013.693-.05.921-.109.227-.061.399-.171.52-.33.119-.16.196-.391.23-.69.032-.3.049-.703.049-1.21v-2.34c0-.906-.01-1.613-.029-2.12s-.087-.88-.2-1.12-.29-.383-.53-.43-.573-.07-1-.07v-.7l3.5-.76.28 2.48h.08c.173-.4.39-.767.649-1.101.261-.333.543-.616.851-.85.307-.233.626-.417.96-.55.333-.134.673-.2 1.02-.2.427 0 .764.104 1.01.31.247.207.371.483.371.83 0 .32-.101.57-.301.75-.199.18-.486.271-.859.271-.214 0-.394-.027-.54-.08-.147-.054-.277-.11-.39-.17-.114-.061-.221-.117-.32-.17-.1-.054-.211-.08-.33-.08-.36 0-.721.229-1.08.689-.36.46-.641 1.044-.84 1.75-.107.387-.19.823-.25 1.311-.061.486-.09.996-.09 1.529v.681z"/><path d="m162.36 168.88c0 .507.021.913.061 1.22.039.308.123.547.25.721.127.173.307.293.539.359.234.067.544.107.931.12v.7h-5.521v-.7c.4-.013.721-.057.961-.13s.43-.189.57-.35c.139-.16.232-.384.279-.67.047-.287.07-.663.07-1.131v-8.619c0-.721-.01-1.323-.03-1.811-.021-.486-.05-.816-.09-.99-.067-.307-.224-.513-.47-.619-.248-.107-.69-.16-1.33-.16v-.681l3.779-.739v13.48z"/><path d="m174.36 170.32h-.08c-.479.68-.99 1.163-1.529 1.449-.541.287-1.178.431-1.91.431-.76 0-1.457-.137-2.09-.41-.634-.273-1.18-.653-1.641-1.14-.459-.487-.82-1.07-1.08-1.75-.26-.681-.39-1.42-.39-2.221 0-.786.13-1.517.39-2.189.26-.674.621-1.253 1.08-1.74.461-.486 1.01-.866 1.65-1.14s1.333-.41 2.08-.41c.64 0 1.21.106 1.71.319.5.214.983.554 1.45 1.021v-2.04c0-.76-.01-1.394-.03-1.9-.021-.506-.05-.853-.09-1.04-.067-.293-.253-.5-.56-.619-.308-.12-.808-.181-1.5-.181v-.6l4.1-.76v11.54c0 .92.006 1.677.02 2.27.014.594.053 1.017.12 1.271.04.159.091.293.149.399.061.107.147.19.261.25.113.061.267.104.46.13.193.027.443.04.75.04v.681l-3.32.22v-1.881m-.4-4.42c0-.693-.036-1.221-.109-1.58-.073-.36-.217-.674-.43-.94-.307-.399-.697-.703-1.17-.91-.474-.206-.943-.31-1.41-.31-.96 0-1.689.396-2.189 1.189-.5.794-.75 1.87-.75 3.23 0 .707.062 1.347.189 1.92s.312 1.063.561 1.47c.246.407.553.721.92.94.365.22.789.33 1.27.33.24 0 .482-.026.73-.08.246-.054.486-.137.719-.25.234-.113.451-.247.65-.4.2-.153.367-.33.5-.529.188-.294.32-.647.4-1.061s.119-.979.119-1.7v-1.319"/><path d="m187.84 170.04h3.98c.319 0 .6-.03.84-.09.24-.061.453-.177.64-.351.187-.173.354-.409.5-.71.146-.3.293-.683.44-1.149h.739l-.76 4.26h-9.3v-.66c1.521-1.359 2.77-2.55 3.75-3.57.98-1.02 1.75-1.937 2.31-2.75.561-.812.947-1.562 1.16-2.25.214-.687.32-1.383.32-2.09 0-1.04-.243-1.859-.73-2.46-.486-.6-1.149-.899-1.989-.899-.801 0-1.45.26-1.95.779-.5.521-.75 1.193-.75 2.02 0 .72.196 1.293.59 1.72s.93.641 1.61.641c-.067.319-.24.576-.521.77s-.627.29-1.04.29c-.373 0-.717-.073-1.03-.22-.312-.146-.586-.354-.819-.62s-.413-.583-.54-.95c-.127-.366-.189-.77-.189-1.21 0-.6.126-1.153.379-1.66.254-.507.601-.943 1.041-1.31.439-.367.963-.657 1.569-.87s1.264-.32 1.97-.32c.707 0 1.354.107 1.94.32s1.093.514 1.52.899c.427.388.757.844.99 1.37.233.527.351 1.11.351 1.75 0 .827-.184 1.637-.551 2.431-.366.793-.87 1.573-1.51 2.34s-1.387 1.52-2.24 2.26-1.767 1.47-2.739 2.19l.019.098"/><path d="m203.38 156.4c.813 0 1.58.206 2.301.619.72.414 1.346.98 1.88 1.7.533.721.956 1.567 1.27 2.54.313.974.47 2.027.47 3.16 0 1.08-.156 2.094-.47 3.04-.313.947-.736 1.771-1.27 2.47-.534.7-1.16 1.254-1.88 1.66-.721.407-1.487.61-2.301.61s-1.58-.203-2.3-.61c-.72-.406-1.347-.96-1.88-1.66-.533-.699-.957-1.522-1.27-2.47-.313-.946-.471-1.96-.471-3.04 0-1.133.157-2.187.471-3.16.312-.973.736-1.819 1.27-2.54.533-.72 1.16-1.286 1.88-1.7.72-.413 1.486-.619 2.3-.619m0 14.84c.521 0 .983-.106 1.391-.32.406-.213.753-.58 1.04-1.1.286-.521.506-1.214.66-2.08.152-.867.229-1.953.229-3.26 0-1.36-.077-2.493-.229-3.4-.154-.906-.37-1.637-.65-2.19-.28-.553-.627-.946-1.04-1.18s-.88-.35-1.4-.35c-.52 0-.986.116-1.399.35-.414.233-.76.627-1.04 1.18-.28.554-.497 1.284-.65 2.19-.153.907-.229 2.04-.229 3.4 0 1.307.076 2.393.229 3.26.153.866.37 1.56.65 2.08.28.52.626.887 1.04 1.1.412.214.878.32 1.398.32"/><path d="m217.66 156.4c.813 0 1.58.206 2.301.619.72.414 1.346.98 1.88 1.7.533.721.956 1.567 1.27 2.54.313.974.47 2.027.47 3.16 0 1.08-.156 2.094-.47 3.04-.313.947-.736 1.771-1.27 2.47-.534.7-1.16 1.254-1.88 1.66-.721.407-1.487.61-2.301.61s-1.58-.203-2.3-.61c-.72-.406-1.347-.96-1.88-1.66-.533-.699-.957-1.522-1.27-2.47-.313-.946-.471-1.96-.471-3.04 0-1.133.157-2.187.471-3.16.312-.973.736-1.819 1.27-2.54.533-.72 1.16-1.286 1.88-1.7.72-.413 1.487-.619 2.3-.619m0 14.84c.521 0 .983-.106 1.391-.32.406-.213.753-.58 1.04-1.1.286-.521.506-1.214.66-2.08.152-.867.229-1.953.229-3.26 0-1.36-.077-2.493-.229-3.4-.154-.906-.37-1.637-.65-2.19-.28-.553-.627-.946-1.04-1.18s-.88-.35-1.4-.35c-.52 0-.986.116-1.399.35-.414.233-.76.627-1.04 1.18-.28.554-.497 1.284-.65 2.19-.153.907-.229 2.04-.229 3.4 0 1.307.076 2.393.229 3.26.153.866.37 1.56.65 2.08.28.52.626.887 1.04 1.1.412.214.879.32 1.398.32"/><path d="m231.94 156.4c.813 0 1.58.206 2.301.619.72.414 1.346.98 1.88 1.7.533.721.956 1.567 1.27 2.54.313.974.47 2.027.47 3.16 0 1.08-.156 2.094-.47 3.04-.313.947-.736 1.771-1.27 2.47-.534.7-1.16 1.254-1.88 1.66-.721.407-1.487.61-2.301.61s-1.58-.203-2.3-.61c-.72-.406-1.347-.96-1.88-1.66-.533-.699-.957-1.522-1.27-2.47-.313-.946-.471-1.96-.471-3.04 0-1.133.157-2.187.471-3.16.312-.973.736-1.819 1.27-2.54.533-.72 1.16-1.286 1.88-1.7.719-.413 1.486-.619 2.3-.619m0 14.84c.521 0 .983-.106 1.391-.32.406-.213.753-.58 1.04-1.1.286-.521.506-1.214.66-2.08.152-.867.229-1.953.229-3.26 0-1.36-.077-2.493-.229-3.4-.154-.906-.37-1.637-.65-2.19-.28-.553-.627-.946-1.04-1.18s-.88-.35-1.4-.35c-.52 0-.986.116-1.399.35-.414.233-.76.627-1.04 1.18-.28.554-.497 1.284-.65 2.19-.153.907-.229 2.04-.229 3.4 0 1.307.076 2.393.229 3.26.153.866.37 1.56.65 2.08.28.52.626.887 1.04 1.1.411.214.878.32 1.398.32"/><path d="m246.36 167.04v-1.66h6.18v1.66h-6.18"/><path d="m263.74 170.04h3.98c.319 0 .6-.03.84-.09.24-.061.453-.177.64-.351.187-.173.354-.409.5-.71.146-.3.293-.683.44-1.149h.739l-.76 4.26h-9.3v-.66c1.52-1.359 2.77-2.55 3.75-3.57.98-1.02 1.75-1.937 2.31-2.75.561-.812.947-1.562 1.16-2.25.214-.687.32-1.383.32-2.09 0-1.04-.243-1.859-.73-2.46-.486-.6-1.149-.899-1.989-.899-.801 0-1.45.26-1.95.779-.5.521-.75 1.193-.75 2.02 0 .72.196 1.293.59 1.72s.93.641 1.61.641c-.067.319-.24.576-.521.77s-.627.29-1.04.29c-.373 0-.717-.073-1.029-.22-.313-.146-.587-.354-.82-.62s-.414-.583-.54-.95c-.127-.366-.19-.77-.19-1.21 0-.6.127-1.153.38-1.66.254-.507.601-.943 1.04-1.31.44-.367.964-.657 1.57-.87s1.264-.32 1.97-.32c.707 0 1.354.107 1.94.32s1.093.514 1.52.899c.427.388.757.844.99 1.37.233.527.351 1.11.351 1.75 0 .827-.184 1.637-.551 2.431-.366.793-.87 1.573-1.51 2.34s-1.387 1.52-2.24 2.26-1.767 1.47-2.739 2.19l.019.098"/><path d="m279.27 156.4c.813 0 1.58.206 2.301.619.72.414 1.346.98 1.88 1.7.533.721.956 1.567 1.27 2.54.313.974.47 2.027.47 3.16 0 1.08-.156 2.094-.47 3.04-.313.947-.736 1.771-1.27 2.47-.534.7-1.16 1.254-1.88 1.66-.721.407-1.487.61-2.301.61s-1.58-.203-2.3-.61c-.72-.406-1.347-.96-1.88-1.66-.533-.699-.957-1.522-1.27-2.47-.313-.946-.471-1.96-.471-3.04 0-1.133.157-2.187.471-3.16.312-.973.736-1.819 1.27-2.54.533-.72 1.16-1.286 1.88-1.7.72-.413 1.487-.619 2.3-.619m0 14.84c.521 0 .983-.106 1.391-.32.406-.213.753-.58 1.04-1.1.286-.521.506-1.214.66-2.08.152-.867.229-1.953.229-3.26 0-1.36-.077-2.493-.229-3.4-.154-.906-.37-1.637-.65-2.19-.28-.553-.627-.946-1.04-1.18s-.88-.35-1.4-.35c-.52 0-.986.116-1.399.35-.414.233-.76.627-1.04 1.18-.28.554-.497 1.284-.65 2.19-.153.907-.229 2.04-.229 3.4 0 1.307.076 2.393.229 3.26.153.866.37 1.56.65 2.08.28.52.626.887 1.04 1.1.412.214.879.32 1.398.32"/><path d="m291.94 168.76c0 .521.023.938.07 1.25.047.313.144.561.29.74s.356.304.63.37.637.106 1.09.12v.76h-6.119v-.76c.439-.014.796-.057 1.069-.13s.486-.193.641-.36c.152-.167.253-.4.3-.7.046-.3.069-.683.069-1.149v-7.341c0-.772-.003-1.413-.01-1.92-.007-.506-.03-.84-.069-1-.067-.293-.268-.473-.601-.54-.333-.066-.833-.1-1.5-.1v-.76c.653-.026 1.343-.117 2.07-.271.727-.153 1.416-.343 2.069-.569v12.36"/><path d="m299.3 162.36l.04.06c.2-.146.493-.27.88-.37.387-.1.773-.149 1.16-.149.587 0 1.133.116 1.64.35s.943.557 1.311.97c.366.414.656.903.87 1.471.213.566.319 1.177.319 1.829 0 .801-.149 1.544-.449 2.23-.301.687-.714 1.287-1.24 1.8-.527.514-1.147.917-1.86 1.21s-1.483.44-2.31.44c-.561 0-1.08-.07-1.561-.21-.479-.141-.89-.33-1.229-.57s-.607-.53-.8-.87c-.194-.34-.29-.71-.29-1.109 0-.36.083-.641.25-.841.166-.199.402-.3.71-.3.279 0 .489.073.63.22.14.147.25.334.33.561s.152.47.22.729c.066.261.163.504.29.73.126.227.307.413.54.56.233.147.557.221.97.221.521 0 .986-.123 1.4-.37.413-.247.76-.601 1.04-1.061.279-.46.496-1.013.649-1.659.153-.647.23-1.37.23-2.171 0-1.133-.157-1.966-.47-2.5-.313-.532-.837-.8-1.57-.8-.561 0-1.017.15-1.37.45s-.644.783-.87 1.45c-.08.24-.153.394-.22.46-.067.066-.153.1-.26.1-.294 0-.44-.133-.44-.399 0-.066.007-.12.02-.16l2.141-8.26c.293.119.626.21 1 .27.373.061.82.09 1.34.09 1.24 0 2.127-.126 2.66-.38l.12.021c-.16.76-.511 1.347-1.05 1.76-.54.413-1.23.62-2.07.62h-1.76l-.941 3.577"/></g></svg>