<svg xmlns="http://www.w3.org/2000/svg" viewBox="0 0 810 108" enable-background="new 0 0 810 108"><g fill="#91989c"><path d="m11.772 95.51v-1.148c0-2.277-.971-3.416-2.912-3.416-.317 0-.588.027-.812.084-.224.056-.411.149-.56.279-.149.131-.285.318-.406.561-.122.242-.238.541-.35.896-.206.542-.406.901-.602 1.078-.196.178-.48.267-.854.267-.934 0-1.4-.467-1.4-1.4 0-.896.476-1.591 1.428-2.086.952-.494 2.305-.742 4.06-.742 1.867 0 3.192.332 3.976.994.784.663 1.176 1.788 1.176 3.374v6.271c0 2.129.42 3.192 1.26 3.192.261 0 .513-.032.756-.098.242-.065.448-.238.616-.519l.392.672c-.224.43-.635.789-1.232 1.078-.598.289-1.223.435-1.876.435-.822 0-1.433-.262-1.834-.784-.402-.522-.602-1.26-.602-2.212h-.14c-.485.915-1.158 1.638-2.02 2.17-.859.532-1.811.798-2.856.798-1.176 0-2.1-.298-2.772-.896s-1.01-1.4-1.01-2.408c0-.448.079-.877.238-1.288.159-.41.416-.803.77-1.176.354-.374.821-.742 1.4-1.106s1.288-.732 2.128-1.106l4.03-1.764m0 1.204c-1.064.411-1.965.812-2.702 1.204s-1.33.784-1.778 1.176c-.448.393-.77.784-.966 1.176-.196.393-.294.794-.294 1.204 0 .616.205 1.12.616 1.513.411.392.952.588 1.624.588.485 0 .938-.121 1.358-.364.42-.242.789-.574 1.106-.994s.569-.914.756-1.483c.186-.569.28-1.172.28-1.807v-2.213"/><path d="m23.728 100.55c0 .766.019 1.372.056 1.82.037.448.135.789.294 1.021.159.234.387.388.686.462.298.075.718.131 1.26.168v.981h-7.448v-.98c.541-.018.97-.069 1.288-.153.317-.084.56-.238.728-.462.168-.225.275-.546.322-.966.046-.421.07-.984.07-1.694v-3.276c0-1.269-.014-2.258-.042-2.968-.028-.709-.122-1.232-.28-1.568s-.406-.536-.742-.602c-.336-.065-.803-.098-1.4-.098v-.98l4.9-1.063.392 3.472h.112c.242-.561.546-1.073.91-1.54.364-.467.761-.863 1.19-1.19.429-.326.877-.583 1.344-.77.466-.187.942-.28 1.428-.28.597 0 1.068.145 1.414.435.345.289.518.677.518 1.161 0 .448-.14.799-.42 1.051-.28.252-.682.378-1.204.378-.299 0-.551-.037-.756-.112-.206-.074-.388-.154-.546-.238-.159-.084-.308-.163-.448-.237-.14-.075-.294-.112-.462-.112-.504 0-1.01.322-1.512.966-.504.645-.896 1.461-1.176 2.45-.149.542-.266 1.152-.35 1.834s-.126 1.396-.126 2.142v.948"/><path d="m39.66 89.88c1.064 0 2.072.191 3.02.574s1.787.91 2.506 1.582c.718.672 1.288 1.47 1.708 2.394s.63 1.938.63 3.038c0 1.139-.21 2.185-.63 3.136-.42.952-.99 1.774-1.708 2.465-.719.69-1.554 1.231-2.506 1.624-.952.392-1.96.588-3.02.588-1.046 0-2.04-.192-2.982-.574-.943-.383-1.769-.919-2.478-1.61-.71-.69-1.27-1.516-1.68-2.478-.411-.961-.616-2.01-.616-3.15 0-1.101.205-2.118.616-3.052s.97-1.736 1.68-2.408c.709-.672 1.535-1.194 2.478-1.567.942-.376 1.936-.562 2.982-.562m0 1.344c-.691 0-1.321.15-1.89.448-.57.299-1.055.724-1.456 1.274s-.709 1.213-.924 1.987c-.215.775-.322 1.629-.322 2.562 0 .971.107 1.848.322 2.632.214.784.522 1.452.924 2 .401.551.882.976 1.442 1.274.56.299 1.194.447 1.904.447.709 0 1.353-.148 1.932-.447.578-.299 1.073-.729 1.484-1.288.41-.561.728-1.232.952-2.02.224-.783.336-1.651.336-2.604 0-.934-.112-1.782-.336-2.548-.224-.766-.542-1.424-.952-1.975-.411-.55-.906-.979-1.484-1.288-.579-.305-1.223-.459-1.932-.459"/><path d="m61.835 94.64c0-.765-.019-1.367-.056-1.806-.038-.438-.136-.774-.294-1.01s-.392-.393-.7-.477-.733-.153-1.274-.21v-.979h5.068v8.596c0 1.064.014 1.933.042 2.604s.07 1.176.126 1.512c.037.243.098.434.182.574.084.14.21.252.378.336s.387.14.658.168c.27.027.62.042 1.05.042v.979l-4.62.336-.308-3.359h-.112c-.709 1.157-1.526 2-2.45 2.534-.924.531-1.89.798-2.898.798-.784 0-1.544-.149-2.282-.448-.738-.299-1.293-.7-1.666-1.204-.318-.41-.546-.979-.686-1.708-.14-.728-.21-1.67-.21-2.828v-4.452c0-.765-.019-1.367-.056-1.806-.038-.438-.136-.774-.294-1.01-.159-.233-.392-.393-.7-.477-.308-.084-.732-.153-1.274-.21v-.979h5.068v7.644c0 2.035.238 3.51.714 4.424.476.915 1.236 1.372 2.282 1.372 1.643 0 2.921-1.073 3.836-3.22.093-.224.168-.429.224-.616.056-.187.103-.392.14-.615.037-.225.065-.477.084-.757.019-.279.028-.615.028-1.01v-2.744"/><path d="m73.68 100.6c0 .766.019 1.368.056 1.807.037.438.135.774.294 1.01.158.233.392.388.7.462.308.075.732.131 1.274.168v.951h-7.336v-.952c.522-.037.938-.093 1.246-.168.308-.074.546-.224.714-.448.168-.224.275-.541.322-.951.046-.411.07-.971.07-1.681v-3.724c0-2.222-.056-3.574-.168-4.061-.056-.242-.126-.442-.21-.602-.084-.158-.21-.28-.378-.364s-.383-.14-.644-.168-.598-.042-1.01-.042v-.896l4.48-1.064.336 2.772h.112c.709-.878 1.54-1.559 2.492-2.044.952-.485 1.988-.729 3.108-.729.858 0 1.643.14 2.352.42s1.25.663 1.624 1.148c.317.43.542.984.672 1.666s.196 1.619.196 2.813v4.676c0 .766.023 1.368.07 1.807.046.438.145.774.294 1.01s.378.388.686.462c.308.075.714.131 1.218.168v.954h-7.251v-.952c.522-.019.938-.07 1.246-.154.308-.084.542-.237.7-.462.158-.224.261-.546.308-.966.046-.42.07-.975.07-1.666v-3.696c0-1.063-.056-1.96-.168-2.688-.112-.728-.294-1.316-.546-1.764-.252-.448-.583-.771-.994-.967-.411-.195-.905-.294-1.484-.294-.84 0-1.61.22-2.31.658-.7.439-1.246 1.041-1.638 1.807-.093.187-.172.363-.238.531s-.117.364-.154.588c-.038.225-.066.481-.084.771-.019.289-.028.658-.028 1.105v3.753"/><path d="m100.47 102.65h-.112c-.672.951-1.386 1.628-2.142 2.029-.756.401-1.647.603-2.674.603-1.064 0-2.04-.192-2.926-.574-.887-.383-1.652-.914-2.296-1.596s-1.148-1.498-1.512-2.45c-.364-.952-.546-1.988-.546-3.108 0-1.101.182-2.123.546-3.065.364-.942.868-1.755 1.512-2.437.644-.681 1.414-1.213 2.31-1.596s1.867-.574 2.912-.574c.896 0 1.694.149 2.394.448.7.299 1.376.774 2.03 1.428v-2.856c0-1.064-.014-1.951-.042-2.66-.028-.709-.07-1.194-.126-1.456-.094-.41-.354-.7-.784-.868-.43-.168-1.13-.252-2.1-.252v-.84l5.74-1.064v16.16c0 1.288.009 2.348.028 3.178.018.831.074 1.424.168 1.778.056.224.126.411.21.56.084.15.205.267.364.351s.374.145.644.182c.271.038.621.056 1.05.056v.952l-4.648.309v-2.634m-.559-6.188c0-.971-.052-1.708-.154-2.212s-.304-.942-.602-1.316c-.43-.56-.976-.984-1.638-1.273-.663-.289-1.321-.435-1.974-.435-1.344 0-2.366.556-3.066 1.666-.7 1.111-1.05 2.618-1.05 4.522 0 .989.088 1.886.266 2.688.177.803.438 1.489.784 2.059.345.569.774 1.01 1.288 1.315.513.309 1.106.462 1.778.462.336 0 .676-.037 1.022-.111.345-.074.681-.191 1.01-.351.327-.158.63-.345.91-.56.28-.215.513-.462.7-.742.261-.41.448-.905.56-1.483.112-.579.168-1.372.168-2.381v-1.848"/><path d="m114.98 91.92v-1.036c.989-.578 1.764-1.157 2.324-1.735.56-.579.989-1.27 1.288-2.072h.812v3.528h3.752v1.315h-3.752v8.512c0 .654.032 1.204.098 1.652.065.448.172.808.322 1.078s.345.462.588.574c.243.111.551.168.924.168.466 0 .863-.099 1.19-.294.326-.196.648-.527.966-.994l.7.532c-.262.69-.714 1.218-1.358 1.582-.644.363-1.442.546-2.394.546-1.232 0-2.17-.294-2.814-.882-.644-.589-.966-1.433-.966-2.534v-9.94h-1.68"/><path d="m130.27 100.55c0 .766.018 1.372.056 1.82.037.448.135.789.294 1.021.159.234.387.388.686.462.298.075.719.131 1.26.168v.981h-7.448v-.98c.542-.037.971-.093 1.288-.168.317-.074.56-.224.728-.447.168-.225.275-.546.322-.966.046-.421.07-.984.07-1.694v-11.733c0-1.101-.014-1.979-.042-2.632-.028-.653-.08-1.147-.154-1.483-.038-.225-.098-.406-.182-.547-.084-.14-.21-.252-.378-.336-.168-.084-.392-.145-.672-.182-.28-.037-.625-.056-1.036-.056v-.952l5.152-1.064v10.668h.112c.28-.373.63-.714 1.05-1.021.42-.309.872-.574 1.358-.798.485-.225.994-.401 1.526-.532.532-.131 1.05-.196 1.554-.196.858 0 1.647.149 2.366.448.718.299 1.274.7 1.666 1.204.317.43.55.994.7 1.693.149.7.224 1.648.224 2.843v4.479c0 .766.018 1.368.056 1.806.037.439.135.78.294 1.022.159.243.387.401.686.476.298.075.719.131 1.26.168v.98h-7.42v-.98c.522-.018.942-.069 1.26-.153s.555-.238.714-.462c.159-.225.261-.546.308-.966.046-.421.07-.984.07-1.694v-3.528c0-2.09-.243-3.579-.728-4.466-.486-.887-1.298-1.33-2.436-1.33-.878 0-1.676.224-2.394.672-.719.448-1.284 1.064-1.694 1.849-.093.205-.173.396-.238.573-.065.178-.117.378-.154.603-.038.224-.061.48-.07.77-.009.29-.014.649-.014 1.078v3.582"/><path d="m158.32 102.4c-1.587 1.922-3.556 2.884-5.908 2.884-1.102 0-2.1-.183-2.996-.546-.896-.364-1.666-.878-2.31-1.54-.644-.663-1.144-1.456-1.498-2.38-.354-.925-.532-1.946-.532-3.066 0-1.139.187-2.193.56-3.164.373-.971.9-1.801 1.582-2.492.681-.69 1.493-1.231 2.436-1.624.942-.392 1.974-.588 3.094-.588 1.811 0 3.21.49 4.2 1.47.989.98 1.484 2.385 1.484 4.215 0 .261-.052.42-.154.476-.103.056-.341.084-.714.084h-9.212c-.038.149-.065.332-.084.546-.019.215-.028.453-.028.714 0 .971.116 1.853.35 2.646.233.793.569 1.47 1.01 2.029.438.561.961.994 1.568 1.303.606.308 1.283.462 2.03.462.784 0 1.512-.173 2.184-.519.672-.345 1.363-.909 2.072-1.693l.868.783m-4.62-7.56c.373 0 .672-.009.896-.028.224-.018.392-.056.504-.111.112-.057.187-.136.224-.238.037-.103.056-.238.056-.406 0-.858-.275-1.544-.826-2.058-.551-.514-1.302-.771-2.254-.771-2.02 0-3.267 1.204-3.752 3.612h5.152"/><path d="m174.79 105.28h-1.036l-3.64-11.648c-.168-.522-.327-.942-.476-1.26s-.327-.569-.532-.756c-.206-.187-.448-.312-.728-.378-.28-.065-.625-.099-1.036-.099v-.979h7.42v.979c-.728 0-1.242.084-1.54.252-.299.168-.448.458-.448.868 0 .188.028.406.084.658s.13.564.224.938l1.904 6.691h.112l4.116-10.388h.868l3.724 10.388h.112l1.68-4.536c.224-.615.411-1.134.56-1.554s.266-.774.35-1.064c.084-.289.145-.526.182-.714.037-.187.056-.363.056-.531 0-.411-.122-.682-.364-.812-.243-.13-.747-.196-1.512-.196v-.979h5.6v.979c-.279 0-.518.042-.713.126-.197.084-.393.248-.588.49-.197.243-.396.588-.604 1.036-.205.448-.457 1.036-.755 1.764l-4.34 10.725h-1.036l-3.416-10.332h-.112l-4.116 10.332"/><path d="m199.48 89.88c1.064 0 2.072.191 3.02.574s1.787.91 2.506 1.582 1.288 1.47 1.708 2.394.63 1.938.63 3.038c0 1.139-.21 2.185-.63 3.136-.42.952-.989 1.774-1.708 2.465s-1.554 1.231-2.506 1.624c-.952.392-1.96.588-3.02.588-1.045 0-2.039-.192-2.981-.574-.943-.383-1.769-.919-2.479-1.61-.709-.69-1.27-1.516-1.68-2.478-.411-.961-.616-2.01-.616-3.15 0-1.101.205-2.118.616-3.052.41-.934.971-1.736 1.68-2.408.71-.672 1.535-1.194 2.479-1.567.942-.376 1.937-.562 2.981-.562m0 1.344c-.69 0-1.32.15-1.89.448-.569.299-1.055.724-1.456 1.274s-.71 1.213-.924 1.987c-.215.775-.322 1.629-.322 2.562 0 .971.107 1.848.322 2.632.214.784.522 1.452.924 2 .401.551.882.976 1.442 1.274.56.299 1.194.447 1.903.447.71 0 1.354-.148 1.933-.447.578-.299 1.073-.729 1.483-1.288.411-.561.729-1.232.952-2.02.225-.783.336-1.651.336-2.604 0-.934-.111-1.782-.336-2.548-.224-.766-.541-1.424-.952-1.975-.41-.55-.905-.979-1.483-1.288-.578-.305-1.222-.459-1.932-.459"/><path d="m214.91 100.55c0 .766.019 1.372.057 1.82.037.448.135.789.294 1.021.158.234.387.388.686.462.299.075.719.131 1.26.168v.981h-7.447v-.98c.541-.018.97-.069 1.287-.153s.561-.238.729-.462c.168-.225.275-.546.322-.966.046-.421.069-.984.069-1.694v-3.276c0-1.269-.014-2.258-.042-2.968-.027-.709-.121-1.232-.279-1.568-.159-.336-.406-.536-.742-.602s-.803-.098-1.4-.098v-.98l4.9-1.063.392 3.472h.112c.242-.561.546-1.073.91-1.54.363-.467.76-.863 1.189-1.19.43-.326.878-.583 1.345-.77.466-.187.942-.28 1.428-.28.597 0 1.068.145 1.414.435.345.289.518.677.518 1.161 0 .448-.14.799-.42 1.051s-.682.378-1.204.378c-.299 0-.551-.037-.756-.112-.205-.074-.388-.154-.546-.238-.159-.084-.308-.163-.448-.237-.14-.075-.294-.112-.462-.112-.504 0-1.01.322-1.512.966-.504.645-.896 1.461-1.176 2.45-.15.542-.267 1.152-.351 1.834s-.126 1.396-.126 2.142v.948z"/><path d="m227.9 100.63c0 .71.028 1.279.084 1.708.057.43.173.766.351 1.01.177.243.429.411.756.504.326.094.761.15 1.302.168v.98h-7.728v-.98c.56-.018 1.01-.079 1.344-.182s.602-.266.798-.49c.196-.224.326-.536.393-.938.064-.401.098-.929.098-1.582v-12.07c0-1.01-.014-1.853-.042-2.534-.028-.681-.07-1.143-.126-1.386-.094-.429-.312-.718-.658-.868-.346-.148-.966-.224-1.862-.224v-.952l5.292-1.036v18.872z"/><path d="m244.7 102.65h-.111c-.673.951-1.387 1.628-2.143 2.029s-1.647.603-2.674.603c-1.064 0-2.04-.192-2.926-.574-.887-.383-1.652-.914-2.296-1.596-.645-.682-1.148-1.498-1.513-2.45-.363-.952-.546-1.988-.546-3.108 0-1.101.183-2.123.546-3.065.364-.942.868-1.755 1.513-2.437.644-.681 1.414-1.213 2.31-1.596.896-.383 1.866-.574 2.912-.574.896 0 1.694.149 2.394.448.7.299 1.377.774 2.03 1.428v-2.856c0-1.064-.014-1.951-.042-2.66s-.07-1.194-.126-1.456c-.094-.41-.354-.7-.784-.868s-1.129-.252-2.1-.252v-.84l5.74-1.064v16.16c0 1.288.009 2.348.027 3.178.019.831.074 1.424.168 1.778.057.224.126.411.21.56.084.15.206.267.364.351s.373.145.645.182c.27.038.62.056 1.05.056v.952l-4.648.309v-2.634m-.559-6.188c0-.971-.052-1.708-.154-2.212s-.304-.942-.602-1.316c-.43-.56-.976-.984-1.639-1.273-.662-.289-1.32-.435-1.974-.435-1.344 0-2.366.556-3.066 1.666-.699 1.111-1.05 2.618-1.05 4.522 0 .989.089 1.886.267 2.688.177.803.438 1.489.783 2.059s.774 1.01 1.288 1.315c.514.309 1.106.462 1.778.462.336 0 .677-.037 1.022-.111.345-.074.681-.191 1.01-.351.326-.158.63-.345.91-.56.279-.215.513-.462.699-.742.262-.41.448-.905.561-1.483.111-.579.168-1.372.168-2.381v-1.848z"/><path d="m263.57 102.26h5.571c.448 0 .841-.042 1.177-.126s.634-.247.896-.49c.262-.242.494-.573.7-.993.205-.421.41-.957.616-1.61h1.036l-1.064 5.963h-13.02v-.924c2.128-1.904 3.878-3.57 5.25-4.998s2.449-2.711 3.233-3.851c.784-1.138 1.325-2.188 1.624-3.149.299-.961.448-1.937.448-2.926 0-1.456-.341-2.604-1.022-3.444s-1.609-1.26-2.785-1.26c-1.12 0-2.03.363-2.73 1.092-.7.728-1.05 1.671-1.05 2.828 0 1.01.275 1.811.826 2.408.55.598 1.302.896 2.254.896-.094.448-.336.808-.729 1.078-.392.271-.877.406-1.456.406-.522 0-1-.103-1.441-.309-.439-.205-.822-.494-1.148-.867-.326-.374-.579-.816-.756-1.33-.178-.514-.266-1.078-.266-1.694 0-.84.177-1.614.531-2.324.354-.709.841-1.32 1.456-1.834.616-.513 1.349-.919 2.198-1.218s1.769-.448 2.758-.448 1.895.149 2.716.448 1.531.719 2.129 1.26c.597.542 1.059 1.181 1.386 1.918.326.738.49 1.554.49 2.45 0 1.157-.257 2.292-.771 3.402s-1.218 2.202-2.114 3.275c-.896 1.074-1.941 2.128-3.136 3.164s-2.474 2.059-3.836 3.066l.029.141"/><path d="m285.33 83.16c1.139 0 2.212.289 3.22.868 1.01.578 1.886 1.372 2.632 2.38.747 1.01 1.34 2.193 1.778 3.556.438 1.363.658 2.838.658 4.424 0 1.513-.22 2.931-.658 4.256-.438 1.326-1.031 2.479-1.778 3.458-.746.98-1.624 1.755-2.632 2.324-1.01.57-2.081.854-3.22.854s-2.212-.284-3.22-.854c-1.01-.569-1.886-1.344-2.633-2.324-.746-.979-1.339-2.132-1.777-3.458-.439-1.325-.658-2.743-.658-4.256 0-1.586.219-3.061.658-4.424.438-1.362 1.031-2.548 1.777-3.556.747-1.01 1.624-1.802 2.633-2.38 1.01-.579 2.081-.868 3.22-.868m0 20.776c.728 0 1.376-.148 1.946-.447.568-.299 1.054-.812 1.456-1.54.4-.729.709-1.698.924-2.912.214-1.213.321-2.734.321-4.564 0-1.903-.107-3.49-.321-4.76-.215-1.27-.519-2.291-.91-3.065-.393-.774-.878-1.325-1.456-1.652-.579-.326-1.232-.49-1.96-.49-.729 0-1.382.164-1.96.49-.579.327-1.064.878-1.456 1.652s-.695 1.796-.91 3.065-.322 2.856-.322 4.76c0 1.83.107 3.352.322 4.564.215 1.214.519 2.184.91 2.912.392.728.877 1.241 1.456 1.54.578.298 1.232.447 1.96.447"/><path d="m305.32 83.16c1.139 0 2.212.289 3.22.868 1.01.578 1.886 1.372 2.632 2.38.747 1.01 1.34 2.193 1.778 3.556.438 1.363.658 2.838.658 4.424 0 1.513-.22 2.931-.658 4.256-.438 1.326-1.031 2.479-1.778 3.458-.746.98-1.624 1.755-2.632 2.324-1.01.57-2.081.854-3.22.854s-2.212-.284-3.22-.854c-1.01-.569-1.886-1.344-2.633-2.324-.746-.979-1.339-2.132-1.777-3.458-.439-1.325-.658-2.743-.658-4.256 0-1.586.219-3.061.658-4.424.438-1.362 1.031-2.548 1.777-3.556.747-1.01 1.624-1.802 2.633-2.38 1.01-.579 2.082-.868 3.22-.868m0 20.776c.728 0 1.376-.148 1.946-.447.568-.299 1.054-.812 1.456-1.54.4-.729.709-1.698.924-2.912.214-1.213.321-2.734.321-4.564 0-1.903-.107-3.49-.321-4.76-.215-1.27-.519-2.291-.91-3.065-.393-.774-.878-1.325-1.456-1.652-.579-.326-1.232-.49-1.96-.49-.729 0-1.382.164-1.96.49-.579.327-1.064.878-1.456 1.652s-.695 1.796-.91 3.065-.322 2.856-.322 4.76c0 1.83.107 3.352.322 4.564.215 1.214.519 2.184.91 2.912.392.728.877 1.241 1.456 1.54.579.298 1.232.447 1.96.447"/><path d="m325.31 83.16c1.139 0 2.212.289 3.22.868 1.01.578 1.886 1.372 2.632 2.38.747 1.01 1.34 2.193 1.778 3.556.438 1.363.658 2.838.658 4.424 0 1.513-.22 2.931-.658 4.256-.438 1.326-1.031 2.479-1.778 3.458-.746.98-1.624 1.755-2.632 2.324-1.01.57-2.081.854-3.22.854s-2.212-.284-3.22-.854c-1.01-.569-1.886-1.344-2.633-2.324-.746-.979-1.339-2.132-1.777-3.458-.439-1.325-.658-2.743-.658-4.256 0-1.586.219-3.061.658-4.424.438-1.362 1.031-2.548 1.777-3.556.747-1.01 1.624-1.802 2.633-2.38 1.01-.579 2.081-.868 3.22-.868m0 20.776c.728 0 1.376-.148 1.946-.447.568-.299 1.054-.812 1.456-1.54.4-.729.709-1.698.924-2.912.214-1.213.321-2.734.321-4.564 0-1.903-.107-3.49-.321-4.76-.215-1.27-.519-2.291-.91-3.065-.393-.774-.878-1.325-1.456-1.652-.579-.326-1.232-.49-1.96-.49-.729 0-1.382.164-1.96.49-.579.327-1.064.878-1.456 1.652s-.695 1.796-.91 3.065-.322 2.856-.322 4.76c0 1.83.107 3.352.322 4.564.215 1.214.519 2.184.91 2.912.392.728.877 1.241 1.456 1.54.578.298 1.231.447 1.96.447"/><path d="m345.5 98.06v-2.323h8.651v2.323h-8.651"/><path d="m369.83 102.26h5.571c.448 0 .841-.042 1.177-.126s.634-.247.896-.49c.262-.242.494-.573.7-.993.205-.421.41-.957.616-1.61h1.036l-1.064 5.963h-13.02v-.924c2.128-1.904 3.878-3.57 5.25-4.998s2.449-2.711 3.233-3.851c.784-1.138 1.325-2.188 1.624-3.149.299-.961.448-1.937.448-2.926 0-1.456-.341-2.604-1.022-3.444s-1.609-1.26-2.785-1.26c-1.12 0-2.03.363-2.73 1.092-.7.728-1.05 1.671-1.05 2.828 0 1.01.275 1.811.826 2.408.55.598 1.302.896 2.254.896-.094.448-.336.808-.729 1.078-.392.271-.877.406-1.456.406-.522 0-1-.103-1.441-.309-.439-.205-.822-.494-1.148-.867-.326-.374-.579-.816-.756-1.33-.178-.514-.266-1.078-.266-1.694 0-.84.177-1.614.531-2.324.354-.709.841-1.32 1.456-1.834.616-.513 1.349-.919 2.198-1.218s1.769-.448 2.758-.448 1.895.149 2.716.448 1.531.719 2.129 1.26c.597.542 1.059 1.181 1.386 1.918.326.738.49 1.554.49 2.45 0 1.157-.257 2.292-.771 3.402s-1.218 2.202-2.114 3.275c-.896 1.074-1.941 2.128-3.136 3.164s-2.474 2.059-3.836 3.066l.029.141"/><path d="m391.59 83.16c1.139 0 2.212.289 3.22.868 1.01.578 1.886 1.372 2.632 2.38.747 1.01 1.34 2.193 1.778 3.556.438 1.363.658 2.838.658 4.424 0 1.513-.22 2.931-.658 4.256-.438 1.326-1.031 2.479-1.778 3.458-.746.98-1.624 1.755-2.632 2.324-1.01.57-2.081.854-3.22.854s-2.212-.284-3.22-.854c-1.01-.569-1.886-1.344-2.633-2.324-.746-.979-1.339-2.132-1.777-3.458-.439-1.325-.658-2.743-.658-4.256 0-1.586.219-3.061.658-4.424.438-1.362 1.031-2.548 1.777-3.556.747-1.01 1.624-1.802 2.633-2.38 1.01-.579 2.081-.868 3.22-.868m0 20.776c.728 0 1.376-.148 1.946-.447.568-.299 1.054-.812 1.456-1.54.4-.729.709-1.698.924-2.912.214-1.213.321-2.734.321-4.564 0-1.903-.107-3.49-.321-4.76-.215-1.27-.519-2.291-.91-3.065-.393-.774-.878-1.325-1.456-1.652-.579-.326-1.232-.49-1.96-.49-.729 0-1.382.164-1.96.49-.579.327-1.064.878-1.456 1.652s-.695 1.796-.91 3.065-.322 2.856-.322 4.76c0 1.83.107 3.352.322 4.564.215 1.214.519 2.184.91 2.912.392.728.877 1.241 1.456 1.54.578.298 1.231.447 1.96.447"/><path d="m409.31 100.46c0 .729.033 1.312.099 1.75s.2.784.406 1.036c.205.252.499.425.882.518.382.094.891.15 1.525.168v1.064h-8.567v-1.064c.616-.018 1.115-.079 1.498-.182.382-.103.681-.271.896-.504s.354-.56.42-.98c.065-.42.099-.956.099-1.609v-10.277c0-1.082-.005-1.979-.015-2.688-.01-.71-.042-1.177-.098-1.4-.094-.41-.374-.662-.84-.756-.467-.093-1.167-.14-2.101-.14v-1.064c.915-.037 1.881-.163 2.898-.378s1.983-.48 2.897-.798v17.304"/><path d="m419.61 91.5l.056.084c.28-.205.69-.378 1.232-.518.541-.141 1.082-.21 1.624-.21.821 0 1.586.163 2.296.489.709.327 1.32.78 1.834 1.358.514.579.919 1.265 1.218 2.058.299.794.448 1.648.448 2.562 0 1.12-.21 2.161-.63 3.122-.42.962-.999 1.802-1.736 2.52-.737.719-1.605 1.284-2.604 1.694-.999.41-2.077.616-3.234.616-.784 0-1.512-.099-2.184-.294-.672-.196-1.246-.462-1.723-.798-.476-.337-.85-.742-1.119-1.219-.271-.476-.406-.994-.406-1.554 0-.504.116-.896.35-1.176.233-.28.564-.42.994-.42.392 0 .687.103.882.308.196.206.351.467.462.784.112.317.215.658.309 1.021.093.364.229.705.405 1.022.178.317.43.579.757.784.326.205.778.308 1.357.308.729 0 1.382-.172 1.96-.518s1.064-.84 1.456-1.484c.393-.644.695-1.418.91-2.324.215-.905.322-1.918.322-3.038 0-1.586-.22-2.753-.658-3.5-.438-.746-1.172-1.119-2.198-1.119-.784 0-1.424.21-1.918.63-.495.42-.9 1.097-1.218 2.029-.112.336-.215.551-.308.645-.094.094-.215.14-.364.14-.411 0-.616-.187-.616-.56 0-.094.009-.168.028-.225l2.996-11.563c.41.168.877.294 1.399.378s1.148.126 1.876.126c1.736 0 2.978-.178 3.725-.532l.168.028c-.225 1.063-.715 1.886-1.471 2.464-.756.579-1.722.868-2.897.868h-2.464l-1.316 5.01"/></g><g fill="#d0dbe2"><path d="M34.09,14.71h-8.47v11.061h6.16v7.979h-6.16v12.46h8.47V35.15h15.68v22.54H1.82V46.21h4.2v-31.5h-4.2V3.23
			h47.95v21.14H34.09V14.71z"/><path d="m70.77 41.73c0 1.587.338 2.729 1.015 3.43.676.7 1.691 1.05 3.045 1.05s2.368-.35 3.045-1.05c.676-.7 1.016-1.843 1.016-3.43v-11.48h-3.78v-11.479h19.88v27.439h3.08v11.48h-19.18v-4.76c-.561.606-1.202 1.236-1.926 1.89-.724.654-1.552 1.26-2.484 1.82-.935.56-2.01 1.039-3.221 1.435-1.214.396-2.613.596-4.199.596-3.827 0-6.85-1.365-9.06-4.096-2.217-2.729-3.325-7.01-3.325-12.845v-11.48h-3.08v-11.479h19.18v22.959"/><path d="m100.03 18.771h19.18v4.62l.699.21c.326-.653.746-1.33 1.261-2.03.513-.7 1.143-1.33 1.89-1.89.746-.561 1.598-1.016 2.555-1.365.956-.35 2.041-.525 3.255-.525.98 0 1.937.07 2.87.21.934.141 1.866.397 2.8.771v12.11c-1.539-.28-2.835-.455-3.885-.525s-1.925-.105-2.625-.105c-3.08 0-5.319.689-6.72 2.065-1.4 1.377-2.1 3.745-2.1 7.105v6.789h6.369v11.48h-25.55v-11.481h3.08v-15.96h-3.08v-11.479"/><path d="m176.33 38.23c0 3.454-.49 6.452-1.47 8.995-.98 2.544-2.393 4.667-4.235 6.37-1.844 1.704-4.072 2.975-6.685 3.814-2.614.84-5.53 1.261-8.75 1.261s-6.138-.421-8.75-1.261c-2.614-.84-4.842-2.11-6.686-3.814-1.844-1.703-3.255-3.826-4.234-6.37-.98-2.543-1.471-5.541-1.471-8.995 0-3.406.49-6.393 1.471-8.96.979-2.566 2.391-4.701 4.234-6.405 1.844-1.703 4.071-2.975 6.686-3.814 2.612-.841 5.53-1.261 8.75-1.261s6.136.42 8.75 1.261c2.612.84 4.841 2.111 6.685 3.814 1.843 1.704 3.255 3.839 4.235 6.405.98 2.568 1.47 5.554 1.47 8.96m-21.14 7.98c1.353 0 2.368-.35 3.045-1.05.676-.7 1.015-1.843 1.015-3.43v-7c0-1.586-.339-2.73-1.015-3.43-.677-.7-1.692-1.051-3.045-1.051-1.354 0-2.369.351-3.045 1.051-.678.699-1.016 1.844-1.016 3.43v7c0 1.587.338 2.729 1.016 3.43.676.7 1.691 1.05 3.045 1.05"/><path d="m201.18 73.23h-24.01v-11.48h3.08v-31.5h-3.08v-11.479h19.18v4.76c.42-.56.968-1.178 1.646-1.854.676-.677 1.48-1.295 2.414-1.855.934-.56 1.961-1.038 3.08-1.435 1.12-.396 2.356-.596 3.71-.596 4.854 0 8.458 1.785 10.815 5.355 2.355 3.57 3.535 8.599 3.535 15.09 0 6.487-1.18 11.515-3.535 15.09-2.357 3.57-5.962 5.355-10.815 5.355-1.354 0-2.59-.199-3.71-.596-1.119-.396-2.146-.875-3.08-1.435-.934-.561-1.738-1.178-2.414-1.855-.678-.676-1.226-1.295-1.646-1.854v8.819h4.83v11.48m3.29-38.5c0-1.586-.339-2.73-1.015-3.43-.678-.7-1.692-1.051-3.046-1.051s-2.368.351-3.045 1.051c-.677.699-1.015 1.844-1.015 3.43v7c0 1.587.338 2.729 1.015 3.43s1.691 1.05 3.045 1.05 2.368-.35 3.046-1.05c.676-.7 1.015-1.843 1.015-3.43v-7"/><path d="m244.09 17.79c3.593 0 6.58.525 8.96 1.575s4.293 2.415 5.74 4.095c1.445 1.681 2.461 3.595 3.045 5.74.583 2.147.875 4.317.875 6.51v5.04h-22.681v.421c0 1.68.479 2.939 1.436 3.779.956.84 2.694 1.26 5.215 1.26 3.08 0 5.903-.232 8.47-.699 2.566-.466 4.69-.98 6.37-1.54v11.2c-.84.42-1.809.828-2.905 1.225s-2.345.77-3.744 1.12c-1.4.35-2.987.63-4.761.84s-3.779.315-6.02.315c-3.22 0-6.138-.421-8.75-1.261-2.614-.84-4.842-2.11-6.686-3.814-1.844-1.703-3.255-3.826-4.234-6.37-.98-2.543-1.471-5.541-1.471-8.995 0-3.406.49-6.393 1.471-8.96.979-2.566 2.391-4.701 4.234-6.405 1.844-1.703 4.071-2.975 6.686-3.814 2.612-.842 5.53-1.262 8.75-1.262m0 12.46c-1.354 0-2.369.351-3.045 1.051-.678.699-1.016 1.844-1.016 3.43v.42h8.12v-.42c0-1.586-.339-2.73-1.015-3.43-.676-.7-1.692-1.051-3.044-1.051"/><path d="m289.31 52.931c-.42.56-.979 1.179-1.68 1.854-.7.678-1.552 1.295-2.555 1.855-1 .56-2.17 1.039-3.5 1.435-1.33.396-2.835.596-4.516.596-4.06 0-7.233-.935-9.52-2.801-2.287-1.865-3.431-4.572-3.431-8.12 0-4.433 2.065-7.78 6.195-10.05 4.13-2.263 10.465-3.395 19-3.395 0-1.306-.42-2.311-1.26-3.01-.84-.7-2.567-1.051-5.18-1.051-2.801 0-5.612.21-8.436.631-2.824.42-5.425.887-7.805 1.399v-12.04c2.38-.652 5.296-1.225 8.75-1.715 3.453-.49 7-.735 10.64-.735 3.733 0 6.849.351 9.346 1.051 2.495.699 4.49 1.762 5.984 3.185 1.493 1.424 2.543 3.197 3.15 5.32.605 2.124.91 4.585.91 7.385v11.479h3.08v11.48h-19.18v-4.759zm0-11.62c-2.894 0-4.97.199-6.229.595-1.261.397-1.891 1.085-1.891 2.065 0 1.494 1.283 2.239 3.851 2.239 2.846 0 4.27-1.492 4.27-4.479v-.42"/><path d="m334.53 46.21h3.08v-11.48c0-1.586-.339-2.73-1.015-3.43-.678-.7-1.692-1.051-3.045-1.051-1.354 0-2.369.351-3.045 1.051-.678.699-1.016 1.844-1.016 3.43v11.48h3.08v11.48h-22.26v-11.48h3.08v-15.96h-3.08v-11.479h19.18v4.76c.561-.56 1.19-1.178 1.891-1.854.699-.677 1.527-1.295 2.484-1.855.956-.56 2.041-1.038 3.255-1.435 1.213-.396 2.613-.596 4.2-.596 3.826 0 6.848 1.365 9.06 4.096 2.216 2.729 3.324 7.01 3.324 12.845v11.478h3.08v11.48h-22.26v-11.48z"/></g><g fill="#c9412d"><path d="m406.22 46.21h3.079v-11.48c0-1.586-.339-2.73-1.015-3.43-.677-.7-1.692-1.051-3.045-1.051-1.354 0-2.369.351-3.045 1.051-.677.699-1.015 1.844-1.015 3.43v11.48h3.079v11.48h-22.259v-11.48h3.08v-31.5h-3.08v-11.48h19.18v20.3c.56-.56 1.189-1.178 1.89-1.854s1.528-1.295 2.485-1.855c.955-.56 2.04-1.038 3.255-1.435 1.213-.396 2.612-.596 4.199-.596 3.826 0 6.849 1.365 9.06 4.096 2.216 2.729 3.325 7.01 3.325 12.845v11.479h3.08v11.48h-22.26v-11.48z"/><path d="m472.02 38.23c0 3.454-.49 6.452-1.47 8.995-.98 2.544-2.393 4.667-4.235 6.37-1.844 1.704-4.072 2.975-6.685 3.814-2.614.84-5.53 1.261-8.75 1.261s-6.138-.421-8.75-1.261c-2.614-.84-4.842-2.11-6.686-3.814-1.844-1.703-3.255-3.826-4.234-6.37-.98-2.543-1.471-5.541-1.471-8.995 0-3.406.49-6.393 1.471-8.96.979-2.566 2.391-4.701 4.234-6.405 1.844-1.703 4.071-2.975 6.686-3.814 2.612-.841 5.53-1.261 8.75-1.261s6.136.42 8.75 1.261c2.612.84 4.841 2.111 6.685 3.814 1.843 1.704 3.255 3.839 4.235 6.405.979 2.568 1.47 5.554 1.47 8.96m-21.14 7.98c1.353 0 2.368-.35 3.045-1.05.676-.7 1.015-1.843 1.015-3.43v-7c0-1.586-.339-2.73-1.015-3.43-.677-.7-1.692-1.051-3.045-1.051-1.354 0-2.369.351-3.045 1.051-.678.699-1.016 1.844-1.016 3.43v7c0 1.587.338 2.729 1.016 3.43.676.7 1.69 1.05 3.045 1.05"/><path d="m475.03 46.771c3.5.514 6.37.852 8.609 1.015 2.24.164 4.01.245 5.32.245 2.053 0 3.406-.163 4.061-.49.652-.325.979-.77.979-1.33 0-.605-.35-1.061-1.05-1.364s-2.147-.618-4.34-.945c-4.854-.653-8.669-2.053-11.445-4.2-2.777-2.146-4.165-5.18-4.165-9.1 0-1.82.326-3.511.98-5.075.652-1.562 1.702-2.916 3.149-4.06 1.446-1.144 3.301-2.041 5.565-2.695 2.263-.653 4.98-.98 8.154-.98 3.453 0 6.568.2 9.346.6 2.775.399 5.075.904 6.895 1.515v9.506c-2.24-.279-4.504-.513-6.79-.7-2.287-.186-4.457-.279-6.51-.279-1.96 0-3.349.14-4.165.419-.817.279-1.225.698-1.225 1.257 0 .279.069.524.21.733.14.21.407.396.805.559.396.163.945.304 1.646.419.699.116 1.586.222 2.659.314 5.413.513 9.403 1.84 11.971 3.981 2.565 2.142 3.85 5.19 3.85 9.147 0 4.145-1.424 7.416-4.27 9.813-2.848 2.397-7.305 3.597-13.37 3.597-3.547 0-6.779-.211-9.695-.631-2.917-.42-5.309-.933-7.175-1.54v-9.731z"/><path d="m530.4 18.771h9.449v11.479h-9.449v11.48c0 1.587.338 2.729 1.015 3.43.676.7 1.69 1.05 3.045 1.05 1.866 0 3.803-.21 5.81-.63v10.99c-1.493.561-3.278 1.05-5.354 1.47-2.077.42-4.305.631-6.686.631-2.38 0-4.491-.258-6.335-.771s-3.395-1.388-4.654-2.625c-1.261-1.236-2.229-2.858-2.905-4.865-.677-2.01-1.015-4.503-1.015-7.489v-12.671h-3.08v-11.479c1.865 0 3.22-.479 4.06-1.436.84-.955 1.26-2.181 1.26-3.675v-3.149h14.841v8.26z"/><path d="m567.01 52.931c-.42.56-.979 1.179-1.68 1.854-.7.678-1.552 1.295-2.555 1.855-1 .56-2.17 1.039-3.5 1.435-1.33.396-2.835.596-4.516.596-4.06 0-7.233-.935-9.52-2.801-2.287-1.865-3.431-4.572-3.431-8.12 0-4.433 2.065-7.78 6.195-10.05 4.13-2.263 10.465-3.395 19-3.395 0-1.306-.42-2.311-1.26-3.01-.84-.7-2.567-1.051-5.18-1.051-2.801 0-5.612.21-8.436.631-2.824.42-5.425.887-7.805 1.399v-12.04c2.38-.652 5.296-1.225 8.75-1.715 3.453-.49 7-.735 10.64-.735 3.733 0 6.849.351 9.346 1.051 2.495.699 4.49 1.762 5.984 3.185 1.493 1.424 2.543 3.197 3.15 5.32.605 2.124.91 4.585.91 7.385v11.479h3.08v11.48h-19.18v-4.759zm0-11.62c-2.894 0-4.97.199-6.229.595-1.261.397-1.891 1.085-1.891 2.065 0 1.494 1.283 2.239 3.851 2.239 2.846 0 4.27-1.492 4.27-4.479v-.42"/><path d="m612.93 18.771h19.18v11.479h-3.08v24.641c0 3.453-.432 6.405-1.295 8.854-.864 2.45-2.159 4.445-3.885 5.985-1.727 1.54-3.85 2.671-6.37 3.395-2.52.724-5.414 1.085-8.68 1.085-3.08 0-6.207-.233-9.38-.699-3.175-.468-5.624-1-7.351-1.61v-11.48c1.96.372 4.096.688 6.405.944 2.31.256 4.608.385 6.896.385 2.753 0 4.7-.432 5.845-1.295 1.143-.863 1.715-2.369 1.715-4.515v-3.01c-.42.56-.98 1.179-1.68 1.854-.7.678-1.505 1.295-2.415 1.855-.91.56-1.938 1.039-3.08 1.435-1.145.396-2.369.596-3.675.596-4.854 0-8.46-1.785-10.815-5.355-2.357-3.57-3.535-8.598-3.535-15.09 0-6.486 1.178-11.515 3.535-15.09 2.355-3.57 5.961-5.355 10.815-5.355 1.306 0 2.53.199 3.675.596 1.143.396 2.17.875 3.08 1.435.91.561 1.715 1.179 2.415 1.855.699.677 1.26 1.295 1.68 1.854v-4.759m-8.12 22.959c0 1.587.338 2.729 1.015 3.43s1.691 1.05 3.046 1.05c1.353 0 2.367-.35 3.045-1.05.676-.7 1.015-1.843 1.015-3.43v-7c0-1.586-.339-2.73-1.015-3.43-.678-.7-1.692-1.051-3.045-1.051-1.354 0-2.369.351-3.046 1.051-.677.699-1.015 1.844-1.015 3.43v7"/><path d="m654.51 17.79c3.593 0 6.58.525 8.96 1.575s4.293 2.415 5.74 4.095c1.445 1.681 2.461 3.595 3.045 5.74.583 2.147.875 4.317.875 6.51v5.04h-22.681v.421c0 1.68.479 2.939 1.436 3.779.956.84 2.694 1.26 5.215 1.26 3.08 0 5.903-.232 8.47-.699 2.566-.466 4.69-.98 6.37-1.54v11.2c-.84.42-1.809.828-2.905 1.225s-2.345.77-3.744 1.12c-1.4.35-2.987.63-4.761.84s-3.779.315-6.02.315c-3.22 0-6.138-.421-8.75-1.261-2.614-.84-4.842-2.11-6.686-3.814-1.844-1.703-3.255-3.826-4.234-6.37-.98-2.543-1.471-5.541-1.471-8.995 0-3.406.49-6.393 1.471-8.96.979-2.566 2.391-4.701 4.234-6.405 1.844-1.703 4.071-2.975 6.686-3.814 2.612-.842 5.53-1.262 8.75-1.262m0 12.46c-1.354 0-2.369.351-3.045 1.051-.678.699-1.016 1.844-1.016 3.43v.42h8.12v-.42c0-1.586-.339-2.73-1.015-3.43-.676-.7-1.692-1.051-3.044-1.051"/><path d="m676.42 46.771c3.5.514 6.37.852 8.609 1.015 2.24.164 4.01.245 5.32.245 2.053 0 3.406-.163 4.061-.49.652-.325.979-.77.979-1.33 0-.605-.35-1.061-1.05-1.364s-2.147-.618-4.34-.945c-4.854-.653-8.669-2.053-11.445-4.2-2.777-2.146-4.165-5.18-4.165-9.1 0-1.82.326-3.511.98-5.075.652-1.562 1.702-2.916 3.149-4.06 1.446-1.144 3.301-2.041 5.565-2.695 2.263-.653 4.98-.98 8.154-.98 3.453 0 6.568.2 9.346.6 2.775.399 5.075.904 6.895 1.515v9.506c-2.24-.279-4.504-.513-6.79-.7-2.287-.186-4.457-.279-6.51-.279-1.96 0-3.349.14-4.165.419-.817.279-1.225.698-1.225 1.257 0 .279.069.524.21.733.14.21.407.396.805.559.396.163.945.304 1.646.419.699.116 1.586.222 2.659.314 5.413.513 9.403 1.84 11.971 3.981 2.565 2.142 3.85 5.19 3.85 9.147 0 4.145-1.424 7.416-4.27 9.813-2.848 2.397-7.305 3.597-13.37 3.597-3.547 0-6.779-.211-9.695-.631-2.917-.42-5.309-.933-7.175-1.54v-9.731"/></g></svg>