<svg xmlns="http://www.w3.org/2000/svg" viewBox="0 0 48 48" enable-background="new 0 0 48 48"><path fill="#4f5e63" d="m34.725 19.831c1.025-.759 1.899-1.634 2.584-2.697-.951.419-1.938.686-2.927.836 1.026-.606 1.9-1.672 2.242-2.889-1.026.609-2.166 1.065-3.306 1.254-.95-.986-2.28-1.633-3.801-1.633-2.851 0-5.167 2.316-5.167 5.243 0 .343.039.761.076 1.14-4.294-.188-8.094-2.279-10.678-5.434-.457.761-.722 1.711-.722 2.659 0 1.711.95 3.345 2.356 4.296-.874-.038-1.634-.229-2.394-.608 0 2.508 1.861 4.636 4.179 5.13-.417.076-.835.152-1.368.152-.342 0-.646-.076-.95-.076.608 2.052 2.508 3.534 4.826 3.609-1.786 1.367-4.03 2.203-6.46 2.203-.418 0-.874 0-1.216-.113 2.242 1.559 5.02 2.395 7.942 2.395 9.577 0 14.782-7.94 14.782-14.782v-.685h.002"/></svg>