<svg xmlns="http://www.w3.org/2000/svg" viewBox="0 0 48 48" enable-background="new 0 0 48 48"><g fill="#0096c7"><path d="m39 12c-1.305 0-2.402.838-2.816 2h-24.368c-.414-1.162-1.512-2-2.816-2-1.657 0-3 1.344-3 3s1.343 3 3 3c1.304 0 2.403-.838 2.816-2h24.368c.414 1.162 1.512 2 2.815 2 1.657 0 3-1.344 3-3s-1.342-3-2.999-3"/><path d="m33 21c-1.305 0-2.402.838-2.816 2h-18.368c-.414-1.162-1.512-2-2.816-2-1.657 0-3 1.344-3 3s1.343 3 3 3c1.304 0 2.403-.838 2.816-2h18.368c.414 1.162 1.512 2 2.815 2 1.657 0 3-1.344 3-3s-1.342-3-2.999-3"/><path d="m27 30c-1.305 0-2.402.838-2.816 2h-12.368c-.414-1.162-1.512-2-2.816-2-1.657 0-3 1.344-3 3s1.343 3 3 3c1.304 0 2.403-.838 2.816-2h12.367c.415 1.162 1.512 2 2.816 2 1.657 0 3-1.344 3-3s-1.342-3-2.999-3"/></g></svg>