<?xml version="1.0" encoding="utf-8"?>
<!-- Generator: Adobe Illustrator 18.1.0, SVG Export Plug-In . SVG Version: 6.00 Build 0)  -->
<svg version="1.1" xmlns="http://www.w3.org/2000/svg" xmlns:xlink="http://www.w3.org/1999/xlink" x="0px" y="0px" width="160px"
	 height="88px" viewBox="0 0 160 88" enable-background="new 0 0 160 88" xml:space="preserve">
<g id="Calque_1">
</g>
<g id="dimensions">
	<g>
		<g>
			<polygon fill-rule="evenodd" clip-rule="evenodd" fill="#0082C8" points="0,0 160,0 160,88 0,88 0,0 			"/>
			<path fill="#FFFFFF" d="M91,31.2c-0.4,0-0.8,0-1.2,0h-8.7l-5,6.5v6.8H62v-6.8h8.6l5-6.5H54v13.3h-7.2V31.2H34.7l-9.1,13.3h-7.3
				L13.7,51h7.4l-5.6,8.1h8.9l5.3-8.1h9.1v8.1h8V51H54v8.1h8V51h14.2v8.1h8V51h5.9c7,0,10.9-3.1,10.9-10.1
				C101,34.6,96.9,31.6,91,31.2z M34,44.5l4.8-7.3v7.3H34z M91,44.3c-1.1,0.5-2.6,0.5-4.1,0.5h-2.8v-7.4h2.8c1.6,0,3,0,4.1,0.5
				c1,0.5,1.7,1.4,1.7,3.3C92.7,42.9,92,43.8,91,44.3z"/>
		</g>
		<radialGradient id="SVGID_1_" cx="135.8403" cy="26.4342" r="45.0656" gradientUnits="userSpaceOnUse">
			<stop  offset="0" style="stop-color:#FFFFFF"/>
			<stop  offset="0.1286" style="stop-color:#F6FBFE"/>
			<stop  offset="0.3383" style="stop-color:#DEEFFA"/>
			<stop  offset="0.6031" style="stop-color:#B6DCF5"/>
			<stop  offset="0.9097" style="stop-color:#7FC1ED"/>
			<stop  offset="1" style="stop-color:#6EB9EB"/>
		</radialGradient>
		<path fill-rule="evenodd" clip-rule="evenodd" fill="url(#SVGID_1_)" d="M112.1,68.9c-0.2-0.2-0.6-0.4-1.3-0.6
			c-0.4-0.1-0.9-0.1-0.8,0c0.1,0.1,0.7,0.4,1.3,0.6C112,69.1,112.3,69.1,112.1,68.9L112.1,68.9z M114,69.1c1,0.2,1.4,0.1,1.3-0.2
			c-0.2-0.3-0.7-0.6-1.8-0.8c-1-0.2-1.4-0.1-1.3,0.2C112.4,68.7,113,68.9,114,69.1L114,69.1z M117.1,69.4c-1-0.1-1.5,0-1.4,0.2
			c0.1,0.2,0.6,0.4,1.5,0.4c0.9,0.1,1.4,0,1.4-0.2C118.6,69.6,118.1,69.4,117.1,69.4L117.1,69.4z M114.1,64c0.1,0.3,0.3,0.6,0.7,0.9
			c0.4,0.3,0.9,0.4,1.4,0.4c0.5,0,1-0.1,1.4-0.3c0.4-0.2,0.6-0.5,0.6-0.8c0-0.3-0.2-0.6-0.6-0.9c-0.4-0.3-0.9-0.4-1.5-0.4
			c-0.6,0-1.1,0.1-1.4,0.3C114.2,63.4,114.1,63.7,114.1,64L114.1,64z M114.8,67.7c0.2,0.4,0.7,0.7,1.8,0.7c1.1,0.1,1.6-0.1,1.6-0.6
			c0-0.2-0.2-0.3-0.5-0.5c-0.3-0.1-1-0.3-1.3-0.3c-0.3,0-1,0.1-1.2,0.1C115,67.3,114.8,67.5,114.8,67.7L114.8,67.7z M112.3,65
			c-0.4,0-1,0-1.2,0.1c-0.3,0.1-0.3,0.3-0.3,0.6c0.2,0.5,1,1,2,1.2c0.5,0.1,1,0,1.2-0.1c0.3-0.1,0.4-0.3,0.4-0.5
			c-0.1-0.3-0.3-0.5-0.7-0.8C113.2,65.2,112.6,65,112.3,65z M118.5,58.5c0-0.5-0.2-0.9-0.7-1.3c-0.5-0.4-1.1-0.7-1.8-0.7
			c-0.7,0-1.3,0.1-1.7,0.5c-0.4,0.3-0.6,0.8-0.6,1.3c0.1,0.5,0.3,1,0.7,1.3c0.5,0.3,1,0.6,1.7,0.6c0.7,0,1.2-0.1,1.6-0.4
			C118.2,59.4,118.5,59,118.5,58.5L118.5,58.5z M101.7,62.7c0.4,0.2,0.5,0.2,0.3-0.2l0,0c-0.2-0.4-0.6-0.8-1-1
			c-0.2-0.1-0.3-0.1-0.3-0.1C100.6,61.6,101.5,62.6,101.7,62.7z M108.5,66.5c0.2,0.4,0.7,0.7,1.5,0.9c0.8,0.3,1.1,0.1,1-0.3
			c-0.2-0.3-0.8-0.7-1.6-0.9C108.6,66,108.3,66.1,108.5,66.5L108.5,66.5z M107,66.7c0.3,0.3,0.7,0.6,1.4,0.8
			c0.5,0.2,0.8,0.1,0.7-0.1c-0.1-0.2-0.7-0.6-1.4-0.8C107,66.5,106.8,66.5,107,66.7L107,66.7z M104.7,63.7c0.3,0.5,0.8,1,1.5,1.2
			c0.7,0.2,1,0.1,0.8-0.3c-0.3-0.5-1.1-1.1-1.6-1.2c-0.3-0.1-0.5-0.1-0.7,0C104.6,63.3,104.6,63.5,104.7,63.7z M104.6,65.1
			c0.4,0.2,0.6,0.2,0.4-0.1c-0.2-0.3-0.6-0.7-1.1-0.9c-0.5-0.2-0.6-0.2-0.4,0.2C103.7,64.5,104.1,64.8,104.6,65.1L104.6,65.1z
			 M107,61.9c-0.2,0.1-0.3,0.3-0.2,0.6c0.2,0.7,0.8,1.1,1.7,1.3c0.3,0.1,0.7,0.1,0.9,0c0.2-0.1,0.3-0.3,0.2-0.6
			c-0.2-0.6-0.8-1.1-1.8-1.4C107.6,61.7,107.3,61.7,107,61.9L107,61.9z M109.4,59.4c-0.3,0.2-0.5,0.6-0.4,1c0.1,0.4,0.3,0.8,0.8,1.1
			c0.4,0.3,0.9,0.5,1.5,0.6c0.6,0.1,1,0,1.3-0.2c0.4-0.2,0.5-0.5,0.5-0.9c0-0.4-0.3-0.8-0.8-1.2c-0.4-0.3-1-0.6-1.6-0.7
			C110.2,59.1,109.8,59.2,109.4,59.4L109.4,59.4z M106.3,55.6c-0.4-0.1-0.8,0-1,0.3c-0.2,0.2-0.3,0.6-0.2,1c0.1,0.4,0.3,0.8,0.7,1.1
			c0.3,0.3,0.7,0.6,1.1,0.7c0.4,0.1,0.8,0,1-0.2c0.3-0.2,0.4-0.5,0.3-0.9c-0.1-0.4-0.3-0.8-0.7-1.2
			C107.2,55.9,106.8,55.7,106.3,55.6L106.3,55.6z M112.4,52.4c-0.5-0.5-1.1-0.7-1.7-0.8c-0.6-0.1-1.1,0.1-1.5,0.5
			c-0.4,0.3-0.5,0.8-0.5,1.4c0.1,0.6,0.3,1.2,0.8,1.6c0.5,0.4,1,0.7,1.6,0.8c0.6,0.1,1.2,0,1.6-0.4c0.4-0.3,0.6-0.8,0.6-1.4
			C113.1,53.4,112.9,52.9,112.4,52.4L112.4,52.4z M117.6,48.1c-0.6-0.5-1.3-0.8-2-0.9c-0.8,0-1.4,0.2-1.9,0.7
			c-0.5,0.5-0.8,1.1-0.7,1.8c0,0.8,0.3,1.4,0.8,1.9c0.5,0.5,1.2,0.8,1.9,0.8c0.8,0,1.4-0.2,1.9-0.6c0.5-0.5,0.8-1.1,0.8-1.8
			C118.5,49.3,118.2,48.6,117.6,48.1L117.6,48.1z M115.7,37.6c-0.8,0.1-1.4,0.3-1.9,0.8c-0.5,0.5-0.8,1.2-0.8,1.9
			c0,0.8,0.2,1.4,0.7,1.9c0.5,0.5,1.2,0.8,1.9,0.8c0.8-0.1,1.5-0.4,2-0.9c0.5-0.6,0.8-1.2,0.8-1.9c0-0.7-0.3-1.4-0.8-1.9
			C117.1,37.9,116.5,37.6,115.7,37.6L115.7,37.6z M108.5,45.1c0,0.6,0.3,1.3,0.7,1.7c0.4,0.5,1,0.8,1.6,0.8c0.7,0,1.2-0.2,1.7-0.7
			c0.5-0.5,0.7-1.1,0.7-1.9c0-0.8-0.3-1.4-0.7-1.9c-0.5-0.5-1-0.7-1.7-0.7c-0.6,0.1-1.2,0.3-1.6,0.8
			C108.8,43.8,108.5,44.5,108.5,45.1z M108.7,36.6c-0.1,0.6,0.1,1.1,0.5,1.5c0.4,0.4,0.9,0.6,1.5,0.5c0.7-0.1,1.2-0.4,1.7-0.8
			c0.5-0.5,0.8-1,0.8-1.6c0-0.6-0.2-1.1-0.6-1.4c-0.4-0.4-0.9-0.5-1.6-0.4c-0.6,0.1-1.2,0.3-1.6,0.8C109,35.5,108.8,36,108.7,36.6
			L108.7,36.6z M105.1,33.4c-0.1,0.4,0,0.7,0.2,1c0.2,0.3,0.6,0.3,1,0.3c0.4-0.1,0.8-0.3,1.2-0.7c0.4-0.4,0.6-0.8,0.7-1.2
			c0.1-0.4,0-0.8-0.3-1c-0.2-0.2-0.6-0.3-1-0.2c-0.4,0.1-0.8,0.3-1.1,0.7C105.4,32.6,105.2,33,105.1,33.4L105.1,33.4z M103.5,26
			c-0.2,0.3-0.1,0.3,0.4,0.1c0.5-0.3,0.9-0.6,1.1-0.9c0.2-0.3,0.1-0.3-0.4-0.1C104.1,25.3,103.8,25.6,103.5,26L103.5,26z
			 M109.4,26.4c-0.3-0.1-0.6-0.1-0.9,0c-0.9,0.2-1.4,0.7-1.7,1.3c-0.1,0.3,0,0.5,0.2,0.6c0.3,0.1,0.6,0.1,0.9,0.1
			c0.4-0.1,0.8-0.3,1.1-0.6c0.3-0.3,0.6-0.6,0.6-0.8C109.7,26.7,109.6,26.5,109.4,26.4L109.4,26.4z M106.3,25.3
			c-0.7,0.3-1.2,0.7-1.5,1.2c-0.3,0.5,0,0.6,0.8,0.4c0.8-0.3,1.3-0.7,1.6-1.2C107.3,25.2,107,25.1,106.3,25.3L106.3,25.3z M107,23.4
			c-0.2,0.3,0,0.3,0.7,0.1c0.7-0.3,1.3-0.6,1.4-0.8c0.2-0.2-0.1-0.3-0.7-0.1C107.7,22.8,107.2,23.2,107,23.4z M110.1,22.8
			c-0.8,0.2-1.3,0.5-1.5,0.9c-0.1,0.2,0,0.3,0.1,0.3c0.2,0.1,0.5,0,0.8-0.1c0.9-0.3,1.4-0.6,1.6-1c0.1-0.2,0-0.3-0.2-0.3
			C110.6,22.7,110.3,22.7,110.1,22.8z M112.6,28.2c-0.3-0.2-0.8-0.3-1.3-0.2c-0.5,0.1-1,0.3-1.5,0.6c-0.4,0.3-0.7,0.7-0.8,1.1
			c-0.1,0.4,0,0.8,0.4,1c0.3,0.2,0.8,0.3,1.4,0.2c0.6-0.1,1.1-0.3,1.6-0.7c0.5-0.3,0.7-0.8,0.8-1.2C113.2,28.7,113,28.4,112.6,28.2
			L112.6,28.2z M113.8,31.9c0,0.5,0.2,0.9,0.6,1.3c0.4,0.4,1,0.5,1.7,0.5c0.7,0,1.3-0.3,1.8-0.7c0.5-0.4,0.7-0.8,0.7-1.4
			c0-0.5-0.2-0.9-0.7-1.3c-0.4-0.3-1-0.4-1.6-0.4c-0.7,0-1.2,0.3-1.7,0.6C114.1,31,113.8,31.4,113.8,31.9L113.8,31.9z M114.3,24
			c0-0.2-0.1-0.4-0.4-0.6c-0.4-0.1-0.8-0.1-1.2-0.1c-1.1,0.2-1.8,0.6-2,1.2c-0.1,0.3,0,0.5,0.3,0.6c0.4,0.1,0.8,0.2,1.2,0.1
			C113.5,25,114.2,24.6,114.3,24L114.3,24z M117.6,25.1c-0.4-0.2-0.8-0.3-1.4-0.3c-0.5,0.1-1,0.2-1.4,0.5c-0.4,0.2-0.6,0.5-0.7,0.8
			c-0.1,0.3,0.1,0.6,0.5,0.8c0.4,0.2,0.8,0.3,1.4,0.3c0.6,0,1.1-0.2,1.5-0.5c0.4-0.3,0.6-0.6,0.6-0.9
			C118.2,25.6,118,25.3,117.6,25.1L117.6,25.1z M116.5,23.1c1.1,0,1.8-0.3,1.8-0.8l0,0c0-0.4-0.5-0.6-1.6-0.5
			c-1.1,0.1-1.7,0.3-1.8,0.8c0,0.2,0.1,0.3,0.4,0.4C115.6,23.1,115.8,23.1,116.5,23.1z M100.6,28.8c0.1,0,0.2,0,0.3-0.1
			c0.4-0.3,0.8-0.6,1-1c0.2-0.3,0.1-0.4-0.3-0.2c-0.4,0.2-0.7,0.6-1,1C100.7,28.6,100.6,28.7,100.6,28.8L100.6,28.8z M114,21.1
			c-0.9,0.2-1.5,0.4-1.7,0.7c-0.2,0.3,0.2,0.4,1.3,0.2c1-0.2,1.6-0.4,1.8-0.7C115.4,21,114.9,20.9,114,21.1L114,21.1z M111.3,21.3
			c-0.7,0.2-1.1,0.4-1.3,0.6c0,0.1,0.2,0.1,0.8,0c0.8-0.2,1.3-0.4,1.3-0.6C112.3,21.1,112,21.1,111.3,21.3L111.3,21.3z M115.6,20.5
			c-0.1,0.2,0.4,0.3,1.4,0.2c1-0.1,1.5-0.2,1.5-0.4c0-0.2-0.5-0.3-1.4-0.2C116.3,20.2,115.8,20.4,115.6,20.5L115.6,20.5z
			 M121.2,68.4c-0.3-0.1-0.4-0.1-1.3-0.1c-0.9,0-1.9,0.3-1.9,0.6c0,0.4,0.6,0.5,1.8,0.5c1.2,0,1.8-0.2,1.9-0.6
			C121.7,68.7,121.6,68.5,121.2,68.4C121.2,68.4,121.5,68.5,121.2,68.4z M124.4,69.4c0.2-0.2-0.3-0.3-1.4-0.2
			c-1.2,0.2-1.8,0.3-1.9,0.6c-0.1,0.3,0.4,0.3,1.5,0.2C123.6,69.8,124.2,69.6,124.4,69.4L124.4,69.4z M138.8,59
			c-0.3,0.2-0.4,0-0.3-0.4c0.2-0.5,0.4-0.8,0.7-0.9c0.3-0.1,0.4,0,0.2,0.5C139.3,58.5,139.1,58.8,138.8,59L138.8,59z M128.5,68
			c-0.3,0.1-0.6,0.2-0.8,0.3c0.1-0.1,0.3-0.2,0.4-0.3c0.2-0.2,0.1-0.3-0.2-0.4c-0.3-0.1-0.6,0-1.3,0.1c-0.7,0.1-2.2,0.7-2.5,1.1
			c-0.2,0.4,0.3,0.5,1.6,0.2c0.3-0.1,0.6-0.1,0.8-0.2c-0.1,0.1-0.4,0.2-0.4,0.2c0,0.1,0.5,0.1,1.2-0.1c0.5-0.1,1.7-0.7,2.1-1
			C129.9,67.6,129.6,67.6,128.5,68L128.5,68z M128,64.4c-0.7,0.2-1.3,0.4-1.8,0.7c-0.5,0.3-0.9,0.7-1,1c-0.1,0.3,0,0.6,0.4,0.7
			c0.3,0.1,0.8,0.1,1.4,0c1.4-0.3,2.3-0.8,2.7-1.6c0.2-0.4,0.1-0.6-0.2-0.8C129,64.3,128.5,64.3,128,64.4L128,64.4z M121.6,67.9
			c0,0.2,0.1,0.4,0.4,0.5c0.2,0.1,0.4,0.1,1.3,0c0.9-0.1,2-0.4,2.2-0.9c0.1-0.2,0-0.4-0.3-0.5c-0.3-0.1-0.8-0.2-1.3-0.1
			c-0.3,0-1.2,0.3-1.5,0.4C122,67.4,121.6,67.7,121.6,67.9C121.6,67.9,121.6,67.7,121.6,67.9z M122,65.5c-0.4-0.2-0.9-0.3-1.6-0.3
			c-0.7,0-1.2,0.2-1.6,0.4c-0.4,0.2-0.7,0.5-0.7,0.8c0,0.3,0.2,0.6,0.6,0.7c0.4,0.2,0.9,0.3,1.5,0.2c0.6,0,1.1-0.1,1.5-0.3
			c0.4-0.2,0.7-0.5,0.8-0.8C122.6,66,122.4,65.7,122,65.5L122,65.5z M122.9,63.3c-0.5,0.3-0.8,0.7-0.9,1.1c0,0.4,0.2,0.7,0.5,0.9
			c0.4,0.2,0.9,0.3,1.5,0.2c0.6-0.1,1.2-0.3,1.7-0.6c0.5-0.3,0.8-0.6,0.9-1c0.1-0.4,0-0.7-0.4-0.9c-0.4-0.2-0.9-0.3-1.5-0.3
			C124.1,62.8,123.5,63,122.9,63.3L122.9,63.3z M121,60.1c-0.8,0-1.4,0.2-1.9,0.6c-0.5,0.3-0.8,0.8-0.8,1.3c0,0.5,0.3,0.9,0.7,1.2
			c0.5,0.3,1,0.5,1.7,0.4c0.7,0,1.3-0.2,1.8-0.5c0.5-0.3,0.8-0.7,0.9-1.2c0.1-0.5-0.2-0.9-0.6-1.2C122.3,60.3,121.7,60.1,121,60.1
			L121,60.1z M127.9,58.2c0.1-0.6-0.1-1.1-0.5-1.5c-0.4-0.4-1-0.6-1.8-0.5c-0.7,0.1-1.4,0.3-2,0.8c-0.6,0.5-0.9,1-0.9,1.6
			c-0.1,0.6,0.2,1.1,0.6,1.4c0.5,0.3,1,0.5,1.8,0.4c0.7-0.1,1.3-0.3,1.9-0.8C127.5,59.3,127.8,58.8,127.9,58.2L127.9,58.2z
			 M121.2,52.1c-0.8,0-1.6,0.3-2.2,0.8c-0.6,0.5-0.9,1.2-0.9,1.9c0,0.7,0.3,1.3,0.8,1.8c0.5,0.4,1.2,0.7,2,0.7
			c0.8,0,1.5-0.2,2.1-0.8c0.6-0.5,0.9-1.1,1-1.8c0-0.7-0.2-1.3-0.7-1.8C122.8,52.4,122.1,52.2,121.2,52.1L121.2,52.1z M128.1,48
			c-0.5-0.6-1.1-0.8-1.9-0.8c-0.8,0-1.5,0.4-2.1,1c-0.6,0.6-0.9,1.3-1,2.2c0,0.8,0.2,1.5,0.8,2c0.5,0.5,1.2,0.7,2,0.7
			c0.8-0.1,1.5-0.4,2-0.9c0.6-0.6,0.9-1.3,0.9-2C128.8,49.2,128.5,48.5,128.1,48L128.1,48z M137.6,56c-0.2,0.6-0.6,0.9-1.1,1.1
			c-0.2,0-0.3,0-0.4-0.2c-0.1-0.2-0.1-0.3,0-0.6c0.3-0.7,0.7-1,1.2-1.1C137.7,55.1,137.8,55.4,137.6,56L137.6,56z M133.3,52.8
			c0.3-0.3,0.5-0.5,0.8-0.7c0.3,0,0.6,0,0.8,0.1c0.2,0.2,0.3,0.4,0.3,0.7c0,0.8-0.4,1.3-1.2,1.6c-0.3,0-0.5,0.1-0.8,0
			c-0.3-0.2-0.4-0.4-0.4-0.7C132.9,53.5,133,53.2,133.3,52.8L133.3,52.8z M140.1,48.8c0,0.7-0.2,1.1-0.7,1.4
			c-0.2,0.2-0.4,0.2-0.6,0.1c-0.2-0.1-0.3-0.3-0.3-0.5c-0.1-0.7,0.2-1.2,0.7-1.5c0.2-0.1,0.3-0.1,0.6,0
			C140,48.3,140.1,48.5,140.1,48.8L140.1,48.8z M142.3,45.1c0.1-0.6,0.2-0.9,0.5-0.9c0.3,0,0.5,0.3,0.5,0.9c0,0.6-0.2,0.9-0.5,0.9
			C142.5,46,142.4,45.7,142.3,45.1L142.3,45.1z M141,52.4c0.2-0.6,0.5-0.9,0.8-1c0.3,0,0.4,0.3,0.2,0.8c-0.2,0.6-0.5,0.9-0.8,1
			C140.9,53.3,140.8,53,141,52.4L141,52.4z M141.8,38.8c-0.3,0-0.6-0.3-0.8-1c-0.2-0.6-0.1-0.9,0.2-0.8c0.3,0.1,0.6,0.4,0.8,1
			C142.3,38.5,142.2,38.8,141.8,38.8L141.8,38.8z M138.8,39.8c0.2-0.1,0.3,0,0.6,0.1c0.5,0.3,0.7,0.8,0.7,1.5c0,0.3-0.1,0.5-0.3,0.6
			c-0.2,0.1-0.3,0.1-0.6-0.1c-0.5-0.3-0.7-0.8-0.7-1.5C138.6,40.1,138.7,39.9,138.8,39.8L138.8,39.8z M135,37.7
			c-0.2,0.2-0.5,0.2-0.8,0.1c-0.3-0.1-0.6-0.3-0.8-0.7c-0.3-0.3-0.4-0.7-0.4-1c0-0.3,0.1-0.6,0.4-0.7c0.2-0.1,0.5-0.2,0.8,0
			c0.7,0.3,1.1,0.8,1.2,1.6C135.3,37.3,135.2,37.5,135,37.7L135,37.7z M121.1,41.8c-0.9,0-1.7,0.3-2.3,0.9c-0.6,0.6-0.9,1.4-0.9,2.3
			c0,0.9,0.3,1.7,0.9,2.3c0.6,0.6,1.4,0.9,2.3,0.9c0.9,0,1.7-0.3,2.3-1c0.6-0.6,1-1.4,1-2.3c0,0,0,0,0-0.1c-0.1-0.9-0.4-1.7-1-2.3
			C122.7,42.1,122,41.8,121.1,41.8L121.1,41.8z M124,35.4c-0.1-0.7-0.4-1.3-1-1.8c-0.6-0.5-1.3-0.7-2.1-0.7c-0.8,0-1.5,0.2-2,0.7
			c-0.6,0.5-0.8,1-0.8,1.8c0,0.7,0.3,1.3,0.9,1.9c0.6,0.5,1.3,0.8,2.2,0.8c0.8,0,1.6-0.2,2.1-0.7C123.8,36.8,124.1,36.2,124,35.4
			L124,35.4z M125.7,37.2c-0.8,0-1.4,0.2-2,0.7c-0.5,0.5-0.8,1.2-0.8,2c0.1,0.8,0.4,1.5,1,2.2c0.6,0.6,1.3,0.9,2.1,0.9
			c0.8,0,1.4-0.3,1.9-0.8c0.5-0.5,0.7-1.2,0.6-2c-0.1-0.8-0.4-1.5-0.9-2.1C127.2,37.5,126.5,37.2,125.7,37.2L125.7,37.2z
			 M123.6,33.1c0.6,0.5,1.3,0.8,2,0.8c0.7,0.1,1.3-0.1,1.8-0.5c0.4-0.4,0.6-0.9,0.5-1.5c-0.1-0.6-0.5-1.1-1-1.6
			c-0.5-0.4-1.2-0.7-1.9-0.7c-0.7-0.1-1.3,0.1-1.8,0.4c-0.5,0.3-0.7,0.8-0.6,1.4C122.7,32.1,123.1,32.7,123.6,33.1L123.6,33.1z
			 M120.7,26.6c-0.7,0-1.3,0.2-1.7,0.5c-0.5,0.3-0.7,0.7-0.7,1.2c0,0.5,0.3,0.9,0.8,1.3c0.5,0.4,1.2,0.6,1.9,0.6
			c0.8,0,1.3-0.2,1.8-0.5c0.5-0.3,0.7-0.8,0.6-1.3c-0.1-0.5-0.3-0.9-0.9-1.2C122,26.7,121.4,26.6,120.7,26.6L120.7,26.6z
			 M121.8,23.2c-0.4-0.2-0.9-0.3-1.5-0.3c-0.6,0-1.1,0.1-1.5,0.2c-0.4,0.2-0.6,0.4-0.6,0.7c0,0.3,0.2,0.6,0.7,0.8
			c0.4,0.2,1,0.3,1.6,0.4c0.7,0,1.2-0.1,1.6-0.3c0.4-0.2,0.6-0.4,0.5-0.7C122.5,23.6,122.2,23.4,121.8,23.2L121.8,23.2z M125.8,25.2
			c-0.5-0.3-1.1-0.5-1.7-0.6c-0.6-0.1-1.1,0-1.5,0.2c-0.4,0.2-0.6,0.5-0.5,0.9c0.1,0.4,0.4,0.7,0.9,1.1c0.5,0.3,1.1,0.5,1.8,0.6
			c0.7,0.1,1.2,0,1.5-0.3c0.4-0.2,0.5-0.5,0.4-0.9C126.6,25.8,126.3,25.5,125.8,25.2L125.8,25.2z M125.6,23.3
			c-0.3,0.2-0.5,0.4-0.4,0.7c0.1,0.3,0.5,0.7,1,1c0.6,0.3,1.2,0.6,1.8,0.7c0.5,0.1,1,0,1.4-0.1c0.3-0.2,0.4-0.4,0.2-0.8
			c-0.2-0.3-0.5-0.7-1-1c-0.5-0.3-1.1-0.5-1.7-0.6C126.4,23.2,125.9,23.2,125.6,23.3L125.6,23.3z M136.5,32.9
			c0.5,0.2,0.9,0.5,1.1,1.1c0.2,0.6,0.1,0.9-0.3,0.8c-0.5-0.1-0.9-0.5-1.2-1.1c-0.1-0.3-0.1-0.5,0-0.7
			C136.1,32.9,136.3,32.9,136.5,32.9L136.5,32.9z M138.7,31.2c0.3,0.2,0.6,0.4,0.8,0.8c0.2,0.4,0.1,0.6-0.2,0.5
			c-0.3-0.1-0.6-0.3-0.8-0.8C138.3,31.3,138.4,31.1,138.7,31.2L138.7,31.2z M132.9,23.8c-0.6-0.4-1.2-0.7-1.8-1
			c-0.4-0.2-0.7-0.2-1-0.3c-0.2,0-0.2,0.1,0,0.3c0.1,0.1,0.3,0.3,0.4,0.4c-0.4-0.2-0.8-0.3-1.2-0.5c-0.4-0.1-0.7-0.2-1.2-0.2
			c-0.3,0.1-0.3,0.2-0.2,0.5c0.2,0.3,0.5,0.6,1,0.9c0.5,0.3,1.1,0.6,1.6,0.7c0.4,0.1,0.9,0.1,1.1,0.1c0.2,0,0.2-0.3,0-0.5
			c-0.2-0.2-0.3-0.3-0.4-0.4c0.4,0.3,1,0.6,1.3,0.7c0.3,0.1,0.4,0.1,0.6,0.1c0,0.1,0.1,0.2,0.2,0.3c0.1,0.1,0.3,0.3,0.5,0.4
			c-0.3-0.1-0.5-0.3-0.7-0.4c-0.5-0.2-0.9-0.3-1.1-0.2c-0.3,0.1-0.3,0.3-0.1,0.7c0.2,0.3,0.4,0.6,0.7,0.9c-0.4-0.3-0.9-0.6-1.5-0.7
			c-0.6-0.2-1-0.2-1.3,0c-0.3,0.2-0.4,0.5-0.3,0.9c0.2,0.5,0.6,0.9,1.1,1.3c0.5,0.5,1.3,0.9,1.7,0.9c0.4,0.1,1.1,0.1,1.3-0.1
			s0.2-0.7,0.1-1c-0.2-0.3-0.4-0.6-0.6-0.9c0.6,0.5,1.1,0.8,1.7,1c0.2,0.1,0.4,0.1,0.6,0.2c0,0.2,0.1,0.3,0.2,0.5
			c0.1,0.2,0.3,0.5,0.5,0.7c-0.3-0.1-0.5-0.3-0.8-0.4c-0.6-0.2-1-0.1-1.2,0c-0.3,0.2-0.3,0.7-0.1,1.3c0.1,0.2,0.2,0.4,0.3,0.6
			c-0.4-0.3-0.7-0.5-1.1-0.6c-0.5-0.1-1,0-1.5,0.1c0-0.3,0-0.5,0-0.8c-0.2-0.5-0.5-1-1.1-1.5c-0.5-0.4-1.2-0.7-1.8-0.9
			c-0.7-0.1-1.3-0.1-1.7,0.2c-0.4,0.3-0.6,0.7-0.5,1.3c0.1,0.6,0.5,1.1,1.1,1.6c0.6,0.5,1.3,0.8,2,1c0.5,0.1,0.9,0,1.3-0.1
			c-0.2,0.3-0.2,0.8-0.1,1.3c0.2,0.6,0.5,1.2,0.9,1.8c-0.5-0.5-1.1-0.8-1.7-0.9c-0.8-0.1-1.4,0.1-1.9,0.5c-0.5,0.4-0.7,1.1-0.6,1.9
			c0.1,0.8,0.5,1.5,1.2,2.2c0.6,0.7,1.3,1,2.1,1.1c0.6,0,1.1-0.1,1.5-0.4c-0.2,0.5-0.3,1.1-0.2,1.6c0.1,0.7,0.3,1.3,0.7,2
			c-0.5-0.4-1-0.6-1.6-0.6c-0.9,0-1.7,0.3-2.3,1c-0.7,0.7-1.1,1.6-1.1,2.6c0,0.1,0,0.1,0,0.2c0,1,0.3,1.9,1.1,2.6
			c0.7,0.7,1.4,1,2.3,0.9c0.6,0,1.2-0.2,1.6-0.6c-0.4,0.6-0.6,1.3-0.7,1.9c-0.1,0.6,0,1.2,0.2,1.7c-0.4-0.3-0.9-0.4-1.5-0.4
			c-0.8,0.1-1.5,0.4-2.1,1.1c-0.7,0.7-1,1.4-1.2,2.2c-0.1,0.8,0.1,1.4,0.6,1.9c0.5,0.4,1.1,0.6,1.9,0.5c0.7-0.1,1.3-0.4,1.7-0.9
			c-0.5,0.5-0.8,1.1-0.9,1.8c-0.1,0.5-0.1,0.9,0.1,1.3c-0.4-0.1-0.9-0.2-1.3-0.1c-0.7,0.1-1.4,0.4-2,0.9c-0.6,0.5-1,1-1.1,1.6
			c-0.1,0.6,0,1,0.5,1.3c0.4,0.3,0.9,0.3,1.7,0.2c0.7-0.2,1.3-0.4,1.8-0.9c0.6-0.4,0.9-0.9,1.1-1.5c0.1-0.2,0.1-0.5,0-0.8
			c0.5,0.2,1,0.2,1.5,0.1c0.4-0.1,0.9-0.4,1.1-0.5c-0.1,0.2-0.1,0.2-0.3,0.6c-0.2,0.4-0.1,1.1,0.1,1.3c0.3,0.2,0.9,0.1,1.2,0
			c0.3-0.1,0.5-0.2,0.8-0.4c-0.2,0.2-0.3,0.5-0.5,0.7c-0.1,0.3-0.1,0.3-0.2,0.4c-0.2,0.1-0.4,0.1-0.6,0.2c-0.5,0.2-1.1,0.6-1.7,1
			c0.2-0.3,0.4-0.5,0.6-0.9c0.2-0.4,0.2-0.8-0.1-1c-0.4-0.2-0.9-0.2-1.3-0.1c-0.6,0.2-1.2,0.5-1.7,0.9c-0.6,0.4-0.9,0.9-1.1,1.3
			c-0.1,0.4,0,0.8,0.3,0.9c0.2,0.1,0.8,0.1,1.3,0c0.6-0.2,1.1-0.4,1.5-0.7c-0.3,0.3-0.5,0.6-0.7,0.8c-0.2,0.4-0.2,0.7,0.1,0.8
			c0.2,0.1,0.6,0,1.1-0.2c0.2-0.1,0.5-0.3,0.7-0.4c-0.2,0.2-0.3,0.3-0.5,0.5c-0.1,0.1-0.1,0.2-0.2,0.2c-0.2,0.1-0.4,0.1-0.5,0.2
			c-0.5,0.2-1,0.5-1.4,0.7c0.1-0.2,0.3-0.3,0.4-0.5c0.1-0.2,0.2-0.4,0-0.5c-0.3-0.1-0.7,0-1.1,0.1c-1.4,0.4-2.2,0.9-2.6,1.5
			c-0.2,0.2-0.1,0.4,0.2,0.5c0.2,0.1,0.9-0.1,1.2-0.1c0.2-0.1,0.8-0.3,1.2-0.5c-0.2,0.1-0.3,0.3-0.5,0.4c-0.2,0.2-0.2,0.4,0,0.3
			c0.2,0,0.7-0.2,1-0.3c0.4-0.1,0.7-0.3,1-0.5c4-2,12.4-10.7,12.4-21.7S137.1,26.3,132.9,23.8z M121.7,21.4
			c-0.1-0.3-0.8-0.5-1.9-0.6c-1.2,0-1.8,0.1-1.8,0.5c0,0.4,0.7,0.6,1.9,0.6c0.5,0,0.9,0,1.3-0.1C121.6,21.6,121.7,21.5,121.7,21.4
			L121.7,21.4z M124.2,21.5c0.3,0.5,1.4,0.9,2.4,1.1c0.5,0.1,1,0.2,1.3,0.1c0.3-0.1,0.3-0.2,0.2-0.4c-0.1-0.1-0.3-0.2-0.4-0.3
			c0.3,0.1,0.6,0.2,0.8,0.3c1,0.3,1.3,0.3,1,0c-0.4-0.3-1.1-0.6-2.1-0.9c-0.5-0.1-1.1-0.1-1.2-0.1c-0.1,0,0.2,0.2,0.4,0.3
			c-0.3-0.1-0.5-0.2-0.8-0.3c-0.4-0.1-1-0.1-1.3-0.1C124.3,21.1,124.1,21.3,124.2,21.5L124.2,21.5z M122,21.8
			c-0.3,0.1-0.5,0.3-0.4,0.5c0.1,0.5,0.8,0.9,2.2,1c0.5,0,0.9,0,1.3-0.1c0.3-0.1,0.4-0.3,0.3-0.5c-0.2-0.5-1-0.8-2.2-1
			C122.9,21.6,122.4,21.6,122,21.8L122,21.8z M122.6,20.2c-1-0.2-1.5,0-1.5,0.2c0.1,0.2,0.7,0.4,1.9,0.6c1.1,0.1,1.6,0,1.4-0.2
			C124.3,20.6,123.6,20.3,122.6,20.2z"/>
	</g>
</g>
</svg>
